<?xml version="1.0" encoding="UTF-8" standalone="no"?>
<!-- Generator: Adobe Illustrator 22.0.1, SVG Export Plug-In . SVG Version: 6.00 Build 0)  -->

<svg
   xmlns:dc="http://purl.org/dc/elements/1.1/"
   xmlns:cc="http://creativecommons.org/ns#"
   xmlns:rdf="http://www.w3.org/1999/02/22-rdf-syntax-ns#"
   xmlns:svg="http://www.w3.org/2000/svg"
   xmlns="http://www.w3.org/2000/svg"
   xmlns:sodipodi="http://sodipodi.sourceforge.net/DTD/sodipodi-0.dtd"
   xmlns:inkscape="http://www.inkscape.org/namespaces/inkscape"
   version="1.1"
   id="Layer_1"
   x="0px"
   y="0px"
   viewBox="0 0 371.2337952 175.3201294"
   style="enable-background:new 0 0 371.2337952 175.3201294;"
   xml:space="preserve"
   sodipodi:docname="equipe.svg"
   inkscape:version="0.92.4 (5da689c313, 2019-01-14)"><metadata
   id="metadata839"><rdf:RDF><cc:Work
       rdf:about=""><dc:format>image/svg+xml</dc:format><dc:type
         rdf:resource="http://purl.org/dc/dcmitype/StillImage" /></cc:Work></rdf:RDF></metadata><defs
   id="defs837" /><sodipodi:namedview
   pagecolor="#ffffff"
   bordercolor="#666666"
   borderopacity="1"
   objecttolerance="10"
   gridtolerance="10"
   guidetolerance="10"
   inkscape:pageopacity="0"
   inkscape:pageshadow="2"
   inkscape:window-width="1366"
   inkscape:window-height="705"
   id="namedview835"
   showgrid="false"
   inkscape:zoom="0.93202721"
   inkscape:cx="185.6169"
   inkscape:cy="87.660065"
   inkscape:window-x="0"
   inkscape:window-y="27"
   inkscape:window-maximized="1"
   inkscape:current-layer="Layer_1" />
<style
   type="text/css"
   id="style2">
	.st0{fill:#FF8588;}
	.st1{fill:#78909C;}
	.st2{fill:#677087;}
	.st3{fill:#FFF3E0;}
	.st4{fill:#FFFFFF;}
	.st5{fill:#BAA8A2;}
	.st6{fill:#FFAB91;}
	.st7{fill:#FFECB3;}
	.st8{fill:#90A4AE;}
	.st9{opacity:0.68;}
	.st10{opacity:0.78;}
	.st11{fill:#003842;}
	.st12{fill:#F06465;}
	.st13{opacity:0.78;fill:#003842;}
	.st14{opacity:0.13;}
	.st15{opacity:0.27;}
	.st16{opacity:0.51;}
	.st17{fill:#E5E5E4;}
	.st18{opacity:0.78;fill:#FFFFFF;}
</style>
<g
   id="Layer_2_1_">
	<g
   id="g554">
		<g
   id="g12">
			<g
   id="g10">
				<path
   class="st0"
   d="M337.699646,113.3454971h-31.4129333c-3.4224243,0-6.1968079-2.7744446-6.1968079-6.1968231      c0-3.4224396,2.7743835-6.1968307,6.1968079-6.1968307h9.08255c3.4224243,0,6.1968079-2.7744446,6.1968079-6.1968765      c0-3.4223862-2.7743835-6.1968307-6.1968079-6.1968307H50.4244957c-3.4224396,0-6.1968269,2.7744446-6.1968269,6.1968307      c0,3.4224319,2.7743874,6.1968765,6.1968269,6.1968765h12.6902542c3.4223824,0,6.1968269,2.7743912,6.1968269,6.1968307      c0,3.4223785-2.7744446,6.1968231-6.1968269,6.1968231H30.7534809c-3.4224377,0-6.1968269,2.7743912-6.1968269,6.1968231      c0,3.4224396,2.7743893,6.1968307,6.1968269,6.1968307h15.4920902c3.4224396,0,6.1968269,2.7744446,6.1968269,6.1968231      v0.000061c0,3.4223785-2.7743874,6.1968231-6.1968269,6.1968231H30.7534809      c-3.4224377,0-6.1968269,2.7743835-6.1968269,6.1968231s2.7743893,6.1968231,6.1968269,6.1968231h25.4759045      c3.4223785,0,6.1968231,2.7744446,6.1968231,6.1968384c0,3.4224396-2.7744446,6.1968231-6.1968231,6.1968231h-7.2296982      c-3.4223824,0-6.1968269,2.7744446-6.1968269,6.1968842c0,3.4223785,2.7744446,6.1968231,6.1968269,6.1968231h285.6015015      c3.4224548,0,6.1968994-2.7744446,6.1968994-6.1968231c0-3.4224396-2.7744446-6.1968842-6.1968994-6.1968842h-13.8551941      c-3.4224548,0-6.1968384-2.7743835-6.1968384-6.1968231c0-3.4223938,2.7743835-6.1968384,6.1968384-6.1968384h13.8551941      c3.4224548,0,6.1968994-2.7743835,6.1968994-6.1968231s-2.7744446-6.1968231-6.1968994-6.1968231h-24.5751038      c-3.4223938,0-6.1968384-2.7744446-6.1968384-6.1968231v-0.000061c0-3.4223785,2.7744446-6.1968231,6.1968384-6.1968231      h27.6735535c3.4224243,0,6.1968079-2.7743912,6.1968079-6.1968307      C343.8964539,116.1198883,341.1220703,113.3454971,337.699646,113.3454971z"
   id="path4" />
				<path
   class="st0"
   d="M9.4088316,113.3454971H9.1792994c-3.4223838,0-6.1968269,2.7743912-6.1968269,6.1968231v0.229538      c0,3.4223785,2.7744431,6.1968231,6.1968269,6.1968231h0.2295322c3.4223833,0,6.196826-2.7744446,6.196826-6.1968231v-0.229538      C15.6056576,116.1198883,12.8312149,113.3454971,9.4088316,113.3454971z"
   id="path6" />
				<path
   class="st0"
   d="M363.091095,138.0180664h-0.2295532c-3.4224243,0-6.1968079,2.7744446-6.1968079,6.1968231v0.229538      c0,3.4223785,2.7743835,6.1968231,6.1968079,6.1968231h0.2295532c3.4223633,0,6.1968079-2.7744446,6.1968079-6.1968231      v-0.229538C369.2879028,140.792511,366.5134583,138.0180664,363.091095,138.0180664z"
   id="path8" />
			</g>
		</g>
		<g
   id="g154">
			<path
   class="st1"
   d="M306.5404968,80.5618668c1.3469849-1.2001419,2.2001343-2.9427185,2.2001343-4.8887253     c0-2.7293015-1.6694031-5.0670624-4.0420837-6.0524597c0.7172852-0.8233337,1.1548462-1.8966446,1.1548462-3.0743713     c0-2.1918335-1.5067139-4.0267601-3.5393066-4.5393677c1.0160217-1.1738739,1.6348877-2.7008858,1.6348877-4.3752327     c0-2.4364777-1.3059692-4.5625267-3.2518005-5.733593c-0.5522156-1.0407486-1.5473022-1.804142-2.7451477-2.0205193     c0.1986084-0.7243233,0.3136292-1.4832764,0.3136292-2.2707214c0-3.9936829-2.7327881-7.3400803-6.4275208-8.2962456     c-0.9657898-3.6483955-4.2801208-6.3414383-8.2322388-6.3414383c-2.3731384,0-4.5180359,0.9712639-6.0636292,2.5359383     c-0.6276855-1.8757744-2.3954163-3.2291794-4.4823914-3.2291794c-0.6685181,0-1.3036804,0.1403809-1.8802185,0.3905754     c-0.8203735-3.0805836-3.6212158-5.3533745-6.9602966-5.3533745c-1.065033,0-2.0726929,0.2368755-2.9825134,0.6513557     c-1.5359802-1.3466702-3.5428162-2.1693382-5.746048-2.1693382c-3.5255432,0-6.5552979,2.0943756-7.9329071,5.1031055     c-1.377594-3.0087299-4.4074249-5.1031055-7.9328918-5.1031055c-4.8207245,0-8.7286377,3.907917-8.7286377,8.7286339     c0,0.7539978,0.1055908,1.4816475,0.2853394,2.1795502c-2.5169067,0.6427002-4.4692078,2.6897125-4.964859,5.2621346     c-1.5144348,0.6328545-2.7159882,1.8586082-3.3233185,3.3861351c-3.4650116,0.3073273-6.1827087,3.2137871-6.1827087,6.7586555     c0,2.3262939,1.1713715,4.3776741,2.9550934,5.6011314c-2.4270172,0.4158859-4.2759247,2.524765-4.2759247,5.0704727     c0,0.0088806,0.0012512,0.0174637,0.0012512,0.026268c-3.6062164,0.2669983-6.4509583,3.270401-6.4509583,6.9449158     c0,3.5053482,2.5899658,6.3981247,5.9590759,6.8894882c-0.0009613,0.0272369-0.0011749,0.0545425-0.0020752,0.0818481     c-3.7104034,0.4968414-6.5745392,3.6668167-6.5745392,7.5131683c0,3.2590027,2.0582581,6.0300369,4.9425964,7.1050491     c-0.7032318,0.9455109-1.1244354,2.1132507-1.1244354,3.3821411c0,2.7245712,1.9194336,4.9986191,4.4792023,5.5498505     c-0.4559937,1.0820389-0.7086334,2.2709427-0.7086334,3.5188904c0,5.008461,4.0602112,9.0686722,9.0687408,9.0686722     c0.5647736,0,1.1151886-0.0585327,1.6513977-0.1573257c0.4511108,1.7298431,2.0194244,3.0084305,3.8905334,3.0084305     c1.3083344,0,2.4674072-0.6270828,3.2025299-1.5939026c0.0437469,0.0301895,0.0859375,0.0621567,0.1297302,0.0922012     c-0.0010376,0.0401154-0.0059967,0.0792618-0.0059967,0.1195908c0,2.5192108,2.0422058,4.5614929,4.5614166,4.5614929     c0.9250946,0,1.7845306-0.2772827,2.5035248-0.7505951c0.1750183,0.0773315,0.3464813,0.1613235,0.5227509,0.2363586     c0.2570038,2.7162781,2.54245,4.8417358,5.3259888,4.8417358c1.428299,0,2.7227173-0.5630722,3.682373-1.4748383     c0.867218,3.6653442,4.1524048,6.3958206,8.0828247,6.3958206c3.2226562,0,6.0111084-1.8371429,7.3909912-4.5179749     c0.2973938,0.0722275,0.6035461,0.1211395,0.9231567,0.1211395c1.7676697,0,3.2445068-1.178688,3.7318726-2.7872467     c0.6833191,0.5507889,1.5406189,0.8943024,2.4865723,0.8943024c0.7108459,0,1.3685913-0.2015762,1.9463196-0.5278473     c1.0892944,0.567955,2.3250122,0.8937073,3.6384583,0.8937073c4.3554077,0,7.8860779-3.5307312,7.8860779-7.886055     c0-0.0109558-0.0015564-0.0215378-0.0016479-0.0325623c0.1963196,0.0207977,0.3952332,0.0325623,0.5971069,0.0325623     c2.0719604,0,3.8768616-1.1274033,4.8467102-2.7993088c0.4411316,0.0993118,0.8982239,0.1562119,1.3693237,0.1562119     c3.4329529,0,6.2160034-2.7829514,6.2160034-6.2160034c0-1.7977753-0.7677612-3.4124756-1.9878845-4.5474319     c2.5360718-0.9213104,4.3510132-3.3454361,4.3510132-6.1998749c0-0.7018204-0.1115723-1.3770065-0.3144226-2.0114899     c0.1918945,0.0161285,0.3847961,0.0293045,0.5809021,0.0293045c3.7933655,0,6.8684692-3.0751114,6.8684692-6.8684769     C309.0563049,83.7330322,308.0761108,81.8215103,306.5404968,80.5618668z"
   id="path14" />
			<g
   id="g18">
				<path
   class="st2"
   d="M309.4807739,75.6731415c0-2.6456833-1.4135437-5.0413132-3.6682129-6.3284073      c0.5079956-0.8411713,0.7811584-1.8074036,0.7811584-2.7981262c0-2.1239777-1.229248-4.0108528-3.0908203-4.8953857      c0.7703552-1.1938591,1.1858826-2.5885544,1.1858826-4.0194359c0-2.5604324-1.2820129-4.8859863-3.439209-6.2618866      c-0.5563965-0.9474335-1.4077148-1.6542168-2.4143372-2.0184517c0.1134338-0.5838661,0.1705017-1.1678085,0.1705017-1.7444954      c0-4.0996552-2.6810608-7.6985435-6.571228-8.8960266c-1.2067871-3.8373184-4.7774963-6.4815941-8.8287659-6.4815941      c-2.139801,0-4.1669006,0.7205467-5.807373,2.0473099c-0.961853-1.6736794-2.7540894-2.7410698-4.7384949-2.7410698      c-0.4791565,0-0.949585,0.0621605-1.4077148,0.1843357c-1.1541138-3.0663033-4.1054993-5.1468391-7.4326477-5.1468391      c-0.9799194,0-1.9381714,0.1798954-2.8545227,0.5347309c-1.6730042-1.3267632-3.741272-2.0523434-5.8745575-2.0523434      c-3.2194824,0-6.2026215,1.6556244-7.9326782,4.3121834c-1.730072-2.656559-4.7132721-4.3121834-7.9326782-4.3121834      c-5.2205505,0-9.4684296,4.2478027-9.4684296,9.4683475c0,0.5484962,0.0520172,1.1092758,0.1561432,1.6736794      c-2.3422089,0.8455353-4.1372528,2.8235054-4.7384949,5.2473335c-1.3889923,0.6778488-2.52211,1.8232346-3.1884155,3.2216339      c-3.6877594,0.5412407-6.4151459,3.6668205-6.4151459,7.4441986c0,1.9988403,0.7949219,3.8937073,2.1759338,5.2912903      c-1.8955383,0.837616-3.2288208,2.6291046-3.4593964,4.7443504c-3.6862946,0.5918579-6.4866333,3.8142281-6.4866333,7.6067772      c0,2.9708405,1.7351074,5.6230392,4.2890167,6.8992538c-2.9116364,1.3174438-4.9068451,4.2565384-4.9068451,7.5850983      c0,3.1515579,1.8130951,6.0357437,4.5939789,7.4362106c-0.5102386,0.9344101-0.7761993,1.9743423-0.7761993,3.0511322      c0,2.7172394,1.7430878,5.1352234,4.2485352,6.0392914c-0.3172302,0.9748917-0.4776764,1.9909973-0.4776764,3.0294495      c0,5.4084396,4.4003296,9.808754,9.8087616,9.808754c0.3801422,0,0.7602844-0.0239029,1.1512299-0.0715561      c0.7320251,1.749527,2.4526825,2.9224472,4.3909149,2.9224472c0.9987183,0,1.9461517-0.3057022,2.7359619-0.8643341      c0.5666351,2.3182983,2.6608582,4.044075,5.1512146,4.044075c0.8317719,0,1.6433411-0.194397,2.379715-0.5651398      c0.5586395,2.8292007,3.0250854,4.8924255,5.9728394,4.8924255c1.177948,0,2.3132782-0.3381882,3.2880859-0.9668961      c1.3022766,3.516449,4.6438599,5.8875198,8.4768982,5.8875198c3.2165833,0,6.1491699-1.684494,7.7802124-4.4320755      c0.1828918,0.0238342,0.3598938,0.0353775,0.5340881,0.0353775c1.730072,0,3.2678833-0.9430695,4.0693054-2.4230881      c1.2589111,0.6605301,2.7735596,0.7125549,4.1018677,0.0903549c1.1453857,0.534729,2.3652954,0.8057938,3.6321106,0.8057938      c4.4985962,0,8.2036743-3.4608765,8.5910034-7.8865051c2.032135-0.0361099,3.9320374-1.0593948,5.0919495-2.7193832      c0.3396606,0.0506134,0.6793213,0.0765915,1.0146179,0.0765915c3.835907,0,6.9563599-3.1204758,6.9563599-6.9556503      c0-1.5580139-0.53479-3.0748825-1.4922791-4.2940521c2.342865-1.2675629,3.8554382-3.7434082,3.8554382-6.4533997      c0-0.4198837-0.0361633-0.8382797-0.1077576-1.2509079c4.0260315-0.1915207,7.2426453-3.5273361,7.2426453-7.5996017      c0-2.0140839-0.7877502-3.9175415-2.1860657-5.3361359C308.8072205,79.2055054,309.4807739,77.4725494,309.4807739,75.6731415z       M308.3165894,85.8742523c0,3.3791733-2.7497864,6.1282349-6.1289673,6.1282349      c-0.1755981,0-0.3483276-0.0122833-0.5202942-0.0267868c-0.2420654-0.0173111-0.4855957,0.083847-0.6402588,0.277504      c-0.1532593,0.1929932-0.2001953,0.4502258-0.125061,0.6858444c0.18573,0.5803146,0.2797241,1.1808319,0.2797241,1.7857132      c0,2.4526901-1.5530701,4.6648026-3.8641052,5.5045624c-0.2421265,0.0873947-0.4206238,0.2955627-0.4719238,0.5477524      c-0.0513611,0.2521973,0.0317688,0.5137939,0.2203979,0.6893921c1.1302795,1.0514832,1.7524719,2.4737091,1.7524719,4.0057449      c0,3.0193176-2.4562988,5.4756317-5.4763489,5.4756317c-0.3953247,0-0.8014526-0.0462494-1.2061462-0.1380157      c-0.3164978-0.070076-0.6409912,0.0715637-0.8035889,0.3504715c-0.8693542,1.4995575-2.4816284,2.431076-4.206665,2.431076      c-0.1763306,0-0.3497314-0.0108032-0.5210266-0.0289307c-0.2095642-0.0202026-0.4147644,0.0621567-0.5709229,0.2031326      c-0.1553345,0.1401596-0.2427979,0.3562393-0.2427979,0.5658112c0,3.9399567-3.205719,7.145752-7.1464233,7.145752      c-1.15625,0-2.2655334-0.2724686-3.296814-0.8101578c-0.2218628-0.115593-0.4878235-0.112709-0.7060242,0.0122833      c-1.1895142,0.6728134-2.5704956,0.5348053-3.6039429-0.2984467c-0.1914978-0.1546631-0.4473267-0.203064-0.6829529-0.1315002      c-0.2348633,0.0729599-0.418396,0.257225-0.4899597,0.4928436c-0.409729,1.3528137-1.6245422,2.2619171-3.0235901,2.2619171      c-0.2276306,0-0.4719238-0.032486-0.7480164-0.0996857c-0.3331604-0.0824356-0.6763611,0.0773315-0.8325195,0.3800735      c-1.3079529,2.5394897-3.8879089,4.1163025-6.7337646,4.1163025c-3.5229797,0-6.5502014-2.3956299-7.3625031-5.8260956      c-0.0606842-0.2573013-0.2550964-0.4632492-0.5087738-0.538353c-0.0693359-0.021019-0.140152-0.0310822-0.210968-0.0310822      c-0.1872253,0-0.3700104,0.070816-0.5095062,0.2037964c-0.8628387,0.8194885-1.989502,1.2711182-3.173233,1.2711182      c-2.3913422,0-4.3641968-1.7936401-4.5896759-4.1719589c-0.025238-0.2695084-0.1965485-0.5043869-0.4465942-0.6106491      c-0.0939178-0.0404816-0.187149-0.083107-0.2796631-0.1264725l-0.2333984-0.1061859      c-0.2290955-0.1011658-0.4958038-0.0802231-0.7060394,0.0592728c-0.6251526,0.4111481-1.3499908,0.6287079-2.0971832,0.6287079      c-2.1073151,0-3.8214874-1.7141571-3.8200073-3.8366547c0.0006714-0.0093918,0.0042877-0.0686722,0.0042877-0.078064      c0.0093994-0.2558212-0.1582031-0.5297012-0.3706665-0.672081l-0.0860596-0.0606766      c-0.3244171-0.2175674-0.7638245-0.1460037-1.0016022,0.1662064c-0.6294556,0.8274765-1.5819092,1.3015289-2.6131287,1.3015289      c-1.4922943,0-2.7981873-1.0095978-3.1747131-2.4549103c-0.0975342-0.3765182-0.4704132-0.6164322-0.8505554-0.5412445      c-0.5289612,0.0975342-1.0254364,0.1452637-1.5168762,0.1452637c-4.5924988,0-8.3287354-3.7362366-8.3287354-8.3287354      c0-1.1194077,0.2189636-2.207077,0.6511383-3.2310257c0.0853119-0.2031326,0.0759277-0.4336472-0.0259857-0.6294556      c-0.1012268-0.195137-0.2847443-0.3353729-0.5000916-0.3816223c-2.2576141-0.4863358-3.8959351-2.5162506-3.8959351-4.8266373      c0-1.0630188,0.3382721-2.0798721,0.9785156-2.9404984c0.1387634-0.1864853,0.1813965-0.4278793,0.1156006-0.6511383      c-0.0657196-0.2233353-0.232666-0.402565-0.4508972-0.4834442c-2.6681061-0.9951706-4.4609985-3.5721741-4.4609985-6.412262      c0-3.4123993,2.5502319-6.3269272,5.9330444-6.7792969c0.3599243-0.0484009,0.6330566-0.4329071,0.6432037-0.796402      c0.0093994-0.3750381-0.2623291-0.6981201-0.6330872-0.7515488c-3.0358887-0.4423065-5.3253174-3.0893936-5.3253174-6.1571045      c0-3.2411652,2.5322266-5.9678078,5.7654114-6.2069778c0.38591-0.0281944,0.6836853-0.3765144,0.6836853-0.7639122      c0-2.1520958,1.5399628-3.9775505,3.6609802-4.3417091c0.2970428-0.0506172,0.5333252-0.2768364,0.5976257-0.5709152      c0.0643921-0.2941551-0.0556488-0.5983734-0.3041992-0.7682037c-1.6491241-1.1316986-2.6334076-2.996891-2.6334076-4.9906998      c0-3.154438,2.3681793-5.7438049,5.5081787-6.0219765c0.2789154-0.0245667,0.5195618-0.2037964,0.6229401-0.4639854      c0.5318451-1.3383827,1.5956116-2.4230881,2.9203033-2.9759483c0.228363-0.0953865,0.394577-0.2991867,0.4414978-0.5427246      c0.4372711-2.272789,2.173111-4.1119347,4.4205933-4.6857376c0.1907806-0.0483971,0.3540955-0.1705742,0.4538422-0.3396645      c0.1004181-0.1690941,0.1286163-0.3707466,0.0802155-0.5615196c-0.1734619-0.675705-0.2616577-1.3470383-0.2616577-1.9952888      c0-4.4046097,3.5837097-7.9883289,7.9884033-7.9883289c3.1110687,0,5.9604797,1.833374,7.2598572,4.6705704      c0.120697,0.2630749,0.3830261,0.4321671,0.672821,0.4321671c0.2897797,0,0.5521088-0.1690922,0.6728058-0.4321671      c1.2993317-2.8371964,4.1487885-4.6705704,7.2598724-4.6705704c1.9302216,0,3.7983246,0.7053032,5.2588654,1.9851513      c0.2196655,0.1922531,0.5304565,0.2385044,0.7941895,0.1170692c0.8527222-0.3880615,1.7531433-0.5846081,2.6760254-0.5846081      c2.9239197,0,5.4915161,1.9757519,6.2445679,4.8035488c0.0556335,0.2088318,0.1994324,0.3822899,0.3930969,0.4762726      c0.194397,0.0931664,0.4191284,0.098938,0.6164246,0.0122833c0.5052185-0.2183037,1.0385132-0.3296013,1.5862732-0.3296013      c1.7163086,0,3.2354126,1.0948448,3.7810059,2.7244949c0.0816345,0.2435341,0.2840271,0.4277992,0.5340881,0.4855919      c0.2499695,0.0592766,0.513031-0.0173149,0.694397-0.2001724c1.4742432-1.4937096,3.4406128-2.3161545,5.536377-2.3161545      c3.5229797,0,6.6145935,2.3812027,7.5171814,5.7907219c0.0686646,0.258709,0.2709961,0.4603615,0.5296936,0.5268135      c3.4580078,0.8954124,5.8730774,4.0122566,5.8730774,7.5800667c0,0.6822128-0.0967712,1.3802643-0.2868958,2.0747643      c-0.0556335,0.2001724-0.0238342,0.4148483,0.0874634,0.5904541c0.1105652,0.175602,0.2897949,0.2969627,0.4943237,0.3338165      c0.9502563,0.1713104,1.7610779,0.7689438,2.2236023,1.6390457c0.0628967,0.1184769,0.1568604,0.2182312,0.2717285,0.2869034      c1.8117676,1.090477,2.8928528,2.996891,2.8928528,5.0998497c0,1.4257774-0.5166931,2.8075218-1.4539795,3.8908234      c-0.1684265,0.1936569-0.2233276,0.4617653-0.1467285,0.7067795c0.077301,0.2449455,0.2760925,0.4321671,0.5253906,0.4949951      c1.7546387,0.4423027,2.9802246,2.01408,2.9802246,3.8222237c0,0.9488373-0.3454285,1.8680801-0.9726562,2.5878143      c-0.1567993,0.1799698-0.2168274,0.4235077-0.1626587,0.6554947c0.0542603,0.2319946,0.2168274,0.4227676,0.436554,0.514534      c2.1781311,0.904068,3.5858459,3.011322,3.5858459,5.3686905c0,1.6498566-0.7118225,3.2302933-1.9526367,4.3359375      c-0.1618652,0.1445999-0.2522278,0.3519516-0.2478638,0.5680313c0.004303,0.2160873,0.103302,0.4198837,0.2709961,0.5572281      C307.4978027,82.3050385,308.3165894,84.0322189,308.3165894,85.8742523z"
   id="path16" />
			</g>
			<g
   id="g152">
				<g
   id="g70">
					<g
   id="g68">
						<g
   id="g36">
							<path
   class="st3"
   d="M281.9971924,127.7845383l-3.6260376-1.5318146l-19.8470459-8.3843079l-19.8471375,8.3843079         l-3.618576,1.5318146c-4.9433441,2.0868301-8.1549072,6.9264908-8.1549072,12.2915573v35.4542236h63.2412262v-35.4542236         C290.1447144,134.7110291,286.9404602,129.8713684,281.9971924,127.7845383z"
   id="path20" />
							<path
   class="st4"
   d="M238.6769714,126.2527237c0.133194,10.8486099,8.9689178,19.5954514,19.8471375,19.5954514         c10.8781433,0,19.7138367-8.7468414,19.8470459-19.5954514l-19.8470459-8.3843079L238.6769714,126.2527237z"
   id="path22" />
							<g
   id="g26">
								<path
   class="st2"
   d="M278.6590881,125.571022l-19.8472595-8.3843765c-0.1836243-0.0780716-0.3916931-0.0780716-0.5752869,0          l-19.84729,8.3843765c-0.2774963,0.1170731-0.4559937,0.3894653-0.4523621,0.6908722          c0.1373444,11.2078171,9.3729706,20.3263626,20.5872803,20.3263626          c11.2135925,0,20.4492798-9.1185455,20.5872803-20.3263626          C279.1150818,125.9604874,278.9365845,125.6880951,278.6590881,125.571022z M258.5241699,145.1082306          c-10.2430573,0-18.7076569-8.1956787-19.094986-18.3701401l19.094986-8.0663986l19.0950012,8.0663986          C277.2310791,136.9125519,268.76651,145.1082306,258.5241699,145.1082306z"
   id="path24" />
							</g>
							<rect
   x="226.9063721"
   y="151.6013031"
   class="st5"
   width="11.9032745"
   height="23.9270172"
   id="rect28" />
							<rect
   x="277.6542969"
   y="151.6013031"
   class="st5"
   width="11.9032593"
   height="23.9270172"
   id="rect30" />
							<g
   id="g34">
								<path
   class="st2"
   d="M290.888031,140.0727692c0-5.6729889-3.3762817-10.7648468-8.6026001-12.9718475l-23.4707336-9.9142761          c-0.1835327-0.0780716-0.3916931-0.0780716-0.5751953,0l-23.4700775,9.9142761          c-5.2263184,2.2070007-8.6032715,7.2988586-8.6032715,12.9718475v35.4554138          c0,0.0007324,0.0004425,0.0014038,0.0004425,0.0021362h1.4790497c0-0.0007324,0.0005188-0.0014038,0.0005188-0.0021362          v-35.4554138c0-5.076767,3.0221252-9.6338959,7.6985474-11.608902l23.1823578-9.7921753l23.1831665,9.7921753          c4.6763306,1.9757538,7.6977844,6.532135,7.6977844,11.608902v35.4554138          c0,0.0007324,0.0004578,0.0014038,0.0004578,0.0021362h1.479126c0-0.0007324,0.0004272-0.0014038,0.0004272-0.0021362          V140.0727692z"
   id="path32" />
							</g>
						</g>
						<g
   id="g46">
							<g
   id="g40">
								<path
   class="st2"
   d="M239.549881,148.7389526c0-0.4090118-0.3310089-0.7400208-0.7400055-0.7400208          s-0.7400055,0.3310089-0.7400055,0.7400208v26.7892303c0,0.0007324,0.0004425,0.0014038,0.0004425,0.0021362h1.479126          c0-0.0007324,0.0004425-0.0014038,0.0004425-0.0021362V148.7389526z"
   id="path38" />
							</g>
							<g
   id="g44">
								<path
   class="st2"
   d="M238.8098755,150.8614349h-8.2687225c-0.4090729,0-0.7400055,0.3309326-0.7400055,0.7400208          c0,0.4089966,0.3309326,0.7400055,0.7400055,0.7400055h8.2687225c0.4089966,0,0.7400055-0.3310089,0.7400055-0.7400055          C239.549881,151.1923676,239.2188721,150.8614349,238.8098755,150.8614349z"
   id="path42" />
							</g>
						</g>
						<g
   id="g56">
							<g
   id="g50">
								<path
   class="st2"
   d="M278.3946228,148.7389526c0-0.4090118-0.3310242-0.7400208-0.7400208-0.7400208          c-0.4090881,0-0.7400208,0.3310089-0.7400208,0.7400208v26.7892303c0,0.0007324,0.0004578,0.0014038,0.0004578,0.0021362          h1.479126c0-0.0007324,0.0004578-0.0014038,0.0004578-0.0021362V148.7389526z"
   id="path48" />
							</g>
							<g
   id="g54">
								<path
   class="st2"
   d="M285.9225769,150.8614349h-8.2679749c-0.4090881,0-0.7400208,0.3309326-0.7400208,0.7400208          c0,0.4089966,0.3309326,0.7400055,0.7400208,0.7400055h8.2679749c0.4090881,0,0.7400208-0.3310089,0.7400208-0.7400055          C286.6625977,151.1923676,286.331665,150.8614349,285.9225769,150.8614349z"
   id="path52" />
							</g>
						</g>
						<path
   class="st5"
   d="M266.8414307,121.3802795v-15.9082108h-16.6282349v15.9093933l-7.5326996,3.1841125        c-0.0444031,0.4735336-0.0666046,0.9471359-0.0666046,1.428215c0,8.7839203,7.126297,15.910202,15.9102173,15.910202        c8.7912903,0,15.9101868-7.1262817,15.9101868-15.910202c0-0.4810791-0.0221863-0.9620132-0.0665894-1.4356155        L266.8414307,121.3802795z"
   id="path58" />
						<g
   id="g62">
							<path
   class="st2"
   d="M274.6554871,123.8763275l-7.0741272-2.9867554v-15.4173584         c0-0.4089966-0.3309937-0.7400055-0.7399902-0.7400055H250.213562c-0.4090729,0-0.7400055,0.3310089-0.7400055,0.7400055         v15.4188385l-7.0814514,2.9932709c-0.2507782,0.1061859-0.4234314,0.3418045-0.4487305,0.6128006         c-0.0462494,0.5037231-0.0694122,0.9929428-0.0694122,1.496666c0,9.1807098,7.4694977,16.6502228,16.6502075,16.6502228         c9.1807861,0,16.6502075-7.4695129,16.6502075-16.6502228c0-0.5008392-0.0230713-1.0074463-0.0693359-1.5045853         C275.0797424,124.2174759,274.9070435,123.9818573,274.6554871,123.8763275z M258.5241699,141.1639862         c-8.3648376,0-15.1701965-6.8053436-15.1701965-15.1701965c0-0.3107986,0.0094147-0.6150208,0.0289307-0.9213867         l7.1189728-3.0092468c0.27388-0.1155853,0.4517059-0.3844376,0.4517059-0.6814728v-15.1694565h15.1477661v15.1680527         c0,0.297699,0.1777649,0.5658112,0.4523621,0.6814728l7.1117859,3.0026627         c0.0187378,0.3093262,0.0288696,0.6200562,0.0288696,0.9293747         C273.6943665,134.3586426,266.8890381,141.1639862,258.5241699,141.1639862z"
   id="path60" />
						</g>
						<g
   id="g66">
							<path
   class="st2"
   d="M258.5241699,136.7239227c-0.4089966,0-0.7400208,0.3309326-0.7400208,0.7400208v4.4400482         c0,0.4090118,0.3310242,0.7400208,0.7400208,0.7400208c0.4090881,0,0.7400208-0.3310089,0.7400208-0.7400208v-4.4400482         C259.2641907,137.0548553,258.9332581,136.7239227,258.5241699,136.7239227z"
   id="path64" />
						</g>
					</g>
				</g>
				<g
   id="g150">
					<g
   id="g104">
						<g
   id="g82">
							
								<ellipse
   transform="matrix(0.9871732 -0.1596528 0.1596528 0.9871732 -9.8495359 37.8326569)"
   class="st5"
   cx="230.5237885"
   cy="80.2141418"
   rx="7.8860016"
   ry="7.8860626"
   id="ellipse72" />
							<g
   id="g76">
								<path
   class="st2"
   d="M230.5237732,71.5879211c-4.7565613,0-8.6257019,3.8698807-8.6257019,8.626442          c0,4.7565536,3.8691406,8.6256943,8.6257019,8.6256943c4.7566223,0,8.6257629-3.8691406,8.6257629-8.6256943          C239.1495361,75.4578018,235.2803955,71.5879211,230.5237732,71.5879211z M230.5237732,87.3600388          c-3.9399719,0-7.1456909-3.205719-7.1456909-7.1456757c0-3.9407043,3.205719-7.1464233,7.1456909-7.1464233          c3.9399567,0,7.145752,3.205719,7.145752,7.1464233C237.6695251,84.1543198,234.4637299,87.3600388,230.5237732,87.3600388z          "
   id="path74" />
							</g>
							<g
   id="g80">
								<path
   class="st2"
   d="M234.5475616,79.47435c-0.4089966,0-0.7400055,0.3310089-0.7400055,0.7400131          c0,1.8102798-1.4727631,3.2830505-3.283783,3.2830505c-1.8109589,0-3.2837982-1.4727707-3.2837982-3.2830505          c0-0.4090042-0.3309326-0.7400131-0.7400055-0.7400131c-0.4090118,0-0.7400208,0.3310089-0.7400208,0.7400131          c0,2.6261444,2.1369324,4.7630692,4.7638245,4.7630692c2.6268768,0,4.7638092-2.1369247,4.7638092-4.7630692          C235.2875824,79.8053589,234.9566498,79.47435,234.5475616,79.47435z"
   id="path78" />
							</g>
						</g>
						<g
   id="g94">
							
								<ellipse
   transform="matrix(0.9871732 -0.1596528 0.1596528 0.9871732 -9.1311483 46.7743225)"
   class="st5"
   cx="286.5307312"
   cy="80.2141418"
   rx="7.8860168"
   ry="7.8860626"
   id="ellipse84" />
							<g
   id="g88">
								<path
   class="st2"
   d="M286.5310974,71.5879211c-4.7565613,0-8.6264343,3.8698807-8.6264343,8.626442          c0,4.7565536,3.869873,8.6256943,8.6264343,8.6256943s8.6257629-3.8691406,8.6257629-8.6256943          C295.1568604,75.4578018,291.2876587,71.5879211,286.5310974,71.5879211z M286.5310974,87.3600388          c-3.9407043,0-7.1464233-3.205719-7.1464233-7.1456757c0-3.9407043,3.205719-7.1464233,7.1464233-7.1464233          c3.9399414,0,7.145752,3.205719,7.145752,7.1464233C293.6768494,84.1543198,290.4710388,87.3600388,286.5310974,87.3600388z          "
   id="path86" />
							</g>
							<g
   id="g92">
								<path
   class="st2"
   d="M290.5541382,79.47435c-0.4089966,0-0.7399902,0.3310089-0.7399902,0.7400131          c0,1.8102798-1.4727783,3.2830505-3.2830505,3.2830505c-1.8110352,0-3.2838135-1.4727707-3.2838135-3.2830505          c0-0.4090042-0.3309937-0.7400131-0.7399902-0.7400131s-0.7400208,0.3310089-0.7400208,0.7400131          c0,2.6261444,2.1369324,4.7630692,4.7638245,4.7630692c2.6261292,0,4.7630615-2.1369247,4.7630615-4.7630692          C291.2941589,79.8053589,290.9632263,79.47435,290.5541382,79.47435z"
   id="path90" />
							</g>
						</g>
						<g
   id="g102">
							<path
   class="st5"
   d="M267.382019,57.4170341c-4.3512573,5.3059425-18.7074432,7.7553749-36.7340851,9.1391182         c-0.0887909,0.8510132-0.1257935,1.7168961-0.1257935,2.5900345v17.1830215         c0,15.4661942,12.5357513,28.0019608,28.0019684,28.0019608c15.4661865,0,28.0093384-12.5357666,28.0093384-28.0019608         V69.1461868c0-1.3393478-0.0066528-1.9713898-0.1916504-3.2590027         C277.1878662,64.3331604,269.9423828,61.3686867,267.382019,57.4170341z"
   id="path96" />
							<g
   id="g100">
								<path
   class="st2"
   d="M286.4653015,65.157608c-9.4155884-1.5984955-16.1450195-4.5665245-18.4626465-8.1429901          c-0.1278687-0.1980247-0.3432922-0.3230133-0.5795593-0.3360367          c-0.2297974-0.0101395-0.4639282,0.0874672-0.6135559,0.2695847          c-4.776825,5.824688-22.9583435,7.8517227-36.2178345,8.8699722          c-0.3569946,0.0274582-0.6424103,0.3057022-0.6792603,0.6612015          c-0.0874634,0.8361359-0.1300964,1.7083893-0.1300964,2.6666946v17.1835403          c0,15.8480453,12.8937836,28.7418213,28.7418213,28.7418213c15.852417,0,28.7490845-12.8937759,28.7490845-28.7418213          V69.1460342c0-1.372345-0.0079346-2.0350189-0.1987-3.364006          C287.0282898,65.4640503,286.7825317,65.211853,286.4653015,65.157608z M285.7932129,86.3295746          c0,15.0321121-12.2324829,27.2618027-27.269043,27.2618027c-15.0321808,0-27.261795-12.2296906-27.261795-27.2618027          V69.1460342c0-0.6735535,0.0216827-1.3008575,0.0671844-1.9006348          c20.3350983-1.5978317,31.5559387-4.2897644,35.9873352-8.6626282          c2.8754578,3.5461273,9.323822,6.3414383,18.3628845,7.9406738c0.108429,0.900444,0.1134338,1.496666,0.1134338,2.6225891          V86.3295746z"
   id="path98" />
							</g>
						</g>
					</g>
					<g
   id="g114">
						<g
   id="g108">
							<path
   class="st2"
   d="M268.2801514,97.5763931l-0.509491,0.1835938         c-5.9569397,2.1398087-12.4941711,2.0761719-18.4055176-0.178566         c-0.3822784-0.1474075-0.8101501,0.0462494-0.9553528,0.4278717         c-0.1452637,0.3822937,0.0462494,0.8093491,0.4278107,0.9553528         c3.2078552,1.2227173,6.5885162,1.8348541,9.9713287,1.8348541c3.201416,0,6.4049988-0.5484924,9.4625854-1.646225         l0.5101624-0.1835938c0.384491-0.1387558,0.5839233-0.5629272,0.4459229-0.9474335         C269.0881042,97.6385498,268.6660767,97.4383774,268.2801514,97.5763931z"
   id="path106" />
						</g>
						<g
   id="g112">
							<path
   class="st2"
   d="M261.5636902,88.9658585c-0.4089966,0-0.7400208,0.3309326-0.7400208,0.7400131         c0,1.2660828-1.0304565,2.2966156-2.2966003,2.2966156c-1.2660828,0-2.2966309-1.0305328-2.2966309-2.2966156         c0-0.4090805-0.3310089-0.7400131-0.7400055-0.7400131s-0.7400208,0.3309326-0.7400208,0.7400131         c0,2.0826797,1.6939545,3.7766342,3.7766571,3.7766342c2.0827332,0,3.7766418-1.6939545,3.7766418-3.7766342         C262.3037109,89.2967911,261.9727783,88.9658585,261.5636902,88.9658585z"
   id="path110" />
						</g>
					</g>
					<g
   id="g148">
						<g
   id="g130">
							<circle
   class="st4"
   cx="245.4137115"
   cy="80.4384384"
   r="3.1057434"
   id="circle116" />
							<g
   id="g120">
								<path
   class="st2"
   d="M245.4135742,76.5923843c-2.120285,0-3.8453217,1.7249603-3.8453217,3.8459778          s1.7250366,3.8460541,3.8453217,3.8460541c2.1210175,0,3.8460541-1.7250366,3.8460541-3.8460541          S247.5345917,76.5923843,245.4135742,76.5923843z M245.4135742,82.8043976          c-1.3044128,0-2.3652954-1.0616226-2.3652954-2.3660355s1.0608826-2.3659592,2.3652954-2.3659592          s2.3660278,1.0615463,2.3660278,2.3659592S246.7179871,82.8043976,245.4135742,82.8043976z"
   id="path118" />
							</g>
							<g
   id="g124">
								<path
   class="st2"
   d="M242.3661346,78.292038c-0.5398407,0-0.9785156-0.4386063-0.9785156-0.9777756          c0-0.4090042-0.3310089-0.7400055-0.7400055-0.7400055s-0.7400055,0.3310013-0.7400055,0.7400055          c0,1.3550339,1.1027527,2.4577942,2.4585266,2.4577942c0.4090118,0,0.7400055-0.3309326,0.7400055-0.7400131          C243.1061401,78.6230469,242.7751465,78.292038,242.3661346,78.292038z"
   id="path122" />
							</g>
							<g
   id="g128">
								<path
   class="st2"
   d="M248.5196075,73.1221085h-7.871994c-0.4089966,0-0.7400055,0.3310089-0.7400055,0.7400131          c0,0.4089966,0.3310089,0.7400055,0.7400055,0.7400055h7.871994c0.4090118,0,0.7400208-0.3310089,0.7400208-0.7400055          C249.2596283,73.4531174,248.9286194,73.1221085,248.5196075,73.1221085z"
   id="path126" />
							</g>
						</g>
						<g
   id="g146">
							<circle
   class="st4"
   cx="271.6343994"
   cy="80.4384384"
   r="3.1057434"
   id="circle132" />
							<g
   id="g136">
								<path
   class="st2"
   d="M271.6340332,76.5923843c-2.1202698,0-3.8452454,1.7249603-3.8452454,3.8459778          s1.7249756,3.8460541,3.8452454,3.8460541c2.1210938,0,3.8460388-1.7250366,3.8460388-3.8460541          S273.755127,76.5923843,271.6340332,76.5923843z M271.6340332,82.8043976          c-1.3044128,0-2.3652344-1.0616226-2.3652344-2.3660355s1.0608215-2.3659592,2.3652344-2.3659592          s2.3660278,1.0615463,2.3660278,2.3659592S272.938446,82.8043976,271.6340332,82.8043976z"
   id="path134" />
							</g>
							<g
   id="g140">
								<path
   class="st2"
   d="M276.4007263,76.5742569c-0.4089966,0-0.7400208,0.3310013-0.7400208,0.7400055          c0,0.5391693-0.4385986,0.9777756-0.9784241,0.9777756c-0.4090881,0-0.7400208,0.3310089-0.7400208,0.7400055          c0,0.4090805,0.3309326,0.7400131,0.7400208,0.7400131c1.3556824,0,2.4584656-1.1027603,2.4584656-2.4577942          C277.1407471,76.9052582,276.8098145,76.5742569,276.4007263,76.5742569z"
   id="path138" />
							</g>
							<g
   id="g144">
								<path
   class="st2"
   d="M276.4007263,73.1221085h-7.8719177c-0.4090881,0-0.7400208,0.3310089-0.7400208,0.7400131          c0,0.4089966,0.3309326,0.7400055,0.7400208,0.7400055h7.8719177c0.4090881,0,0.7400208-0.3310089,0.7400208-0.7400055          C277.1407471,73.4531174,276.8098145,73.1221085,276.4007263,73.1221085z"
   id="path142" />
							</g>
						</g>
					</g>
				</g>
			</g>
		</g>
		<g
   id="g296">
			<g
   id="g294">
				<g
   id="g200">
					<g
   id="g198">
						<g
   id="g168">
							<path
   class="st6"
   d="M208.6673584,114.7308502l-23.4704285-9.9142075l-23.4703674,9.9142075         c-4.9399261,2.0866776-8.1504669,6.9281158-8.1504669,12.2906647v48.5068054h63.2417297v-48.5068054         C216.8178253,121.6589661,213.6072998,116.8175278,208.6673584,114.7308502z"
   id="path156" />
							<path
   class="st4"
   d="M173.6689148,109.742218c0,6.366745,5.1612701,11.5280151,11.5280151,11.5280151         c6.3668213,0,11.5280914-5.1612701,11.5280914-11.5280151c0,0-5.1612701-2.4482422-11.5280914-2.4482422         C178.8301849,107.2939758,173.6689148,109.742218,173.6689148,109.742218z"
   id="path158" />
							<g
   id="g162">
								<path
   class="st2"
   d="M197.0419617,109.0739899c-0.2168274-0.103302-5.3856354-2.5199509-11.8448029-2.5199509          c-6.459549,0-11.6288147,2.4166489-11.8456421,2.5199509c-0.2579498,0.1221771-0.4226837,0.3822937-0.4226837,0.6684494          c0,6.7648773,5.5034485,12.2680283,12.2683258,12.2680283c6.7644958,0,12.2675781-5.5031509,12.2675781-12.2680283          C197.4647369,109.4562836,197.2999268,109.196167,197.0419617,109.0739899z M185.1971588,120.5304489          c-5.7878418,0-10.5256805-4.5810318-10.7778778-10.3081131c1.3514099-0.5622559,5.6964417-2.1882782,10.7778778-2.1882782          c5.0810394,0,9.4260864,1.6260223,10.7770386,2.1882782          C195.7223816,115.9494171,190.9846191,120.5304489,185.1971588,120.5304489z"
   id="path160" />
							</g>
							<g
   id="g166">
								<path
   class="st2"
   d="M217.5576935,127.0213699c0-5.6735764-3.376297-10.7647705-8.6026154-12.9718475l-23.469986-9.9142075          c-0.1842651-0.0780716-0.3916931-0.0780716-0.5759583,0l-23.4707184,9.9142075          c-5.2255859,2.207077-8.6022491,7.2989349-8.6022491,12.9718475v48.506813          c0,0.0007324,0.0004425,0.0014038,0.0004425,0.0021362h1.479126c0-0.0007324,0.0004425-0.0014038,0.0004425-0.0021362          v-48.506813c0-5.0766907,3.0218353-9.633812,7.6981812-11.608902l23.1828003-9.792099l23.1827087,9.792099          c4.6763458,1.97509,7.6977997,6.5322113,7.6977997,11.608902v48.506813          c0,0.0007324,0.0004425,0.0014038,0.0004425,0.0021362h1.4791412c0-0.0007324,0.0004425-0.0014038,0.0004425-0.0021362          V127.0213699z"
   id="path164" />
							</g>
						</g>
						<g
   id="g178">
							<g
   id="g172">
								<path
   class="st2"
   d="M166.2192383,135.6876221c0-0.4090729-0.3313751-0.7400055-0.7400208-0.7400055          c-0.4087067,0-0.7400055,0.3309326-0.7400055,0.7400055v39.8405609c0,0.0007324,0.0004425,0.0014038,0.0004425,0.0021362          h1.4791412c0-0.0007324,0.0004425-0.0014038,0.0004425-0.0021362V135.6876221z"
   id="path170" />
							</g>
							<g
   id="g176">
								<path
   class="st2"
   d="M165.4792175,137.8100433h-8.2684174c-0.4086304,0-0.7400055,0.3310089-0.7400055,0.7400055          c0,0.4090729,0.3313751,0.7400055,0.7400055,0.7400055h8.2684174c0.4086456,0,0.7400208-0.3309326,0.7400208-0.7400055          C166.2192383,138.1410522,165.8878632,137.8100433,165.4792175,137.8100433z"
   id="path174" />
							</g>
						</g>
						<g
   id="g188">
							<g
   id="g182">
								<path
   class="st2"
   d="M205.0642548,135.6876221c0-0.4090729-0.3309326-0.7400055-0.7400055-0.7400055          c-0.4090118,0-0.7400055,0.3309326-0.7400055,0.7400055v39.8405609c0,0.0007324,0.0004425,0.0014038,0.0004425,0.0021362          h1.479126c0-0.0007324,0.0004425-0.0014038,0.0004425-0.0021362V135.6876221z"
   id="path180" />
							</g>
							<g
   id="g186">
								<path
   class="st2"
   d="M212.5930481,137.8100433h-8.2687988c-0.4090118,0-0.7400055,0.3310089-0.7400055,0.7400055          c0,0.4090729,0.3309937,0.7400055,0.7400055,0.7400055h8.2687988c0.4089966,0,0.7400055-0.3309326,0.7400055-0.7400055          C213.3330536,138.1410522,213.0020447,137.8100433,212.5930481,137.8100433z"
   id="path184" />
							</g>
						</g>
						<g
   id="g196">
							<path
   class="st3"
   d="M176.882843,109.7306061c0,4.5917587,3.7223969,8.3141479,8.3141632,8.3141479         c4.5917511,0,8.3140717-3.7223892,8.3140717-8.3141479V92.4208908H176.882843V109.7306061z"
   id="path190" />
							<g
   id="g194">
								<path
   class="st2"
   d="M193.5110016,91.2646255H176.882843c-0.4086304,0-0.7400055,0.3310089-0.7400055,0.7400131v17.3100052          c0,4.9921799,4.0617676,9.0535736,9.0543213,9.0535736c4.9921722,0,9.0538635-4.0613937,9.0538635-9.0535736V92.0046387          C194.2510223,91.5956345,193.9197083,91.2646255,193.5110016,91.2646255z M192.7709961,109.3146439          c0,4.1763153-3.3975983,7.573555-7.5738373,7.573555c-4.1763306,0-7.5743103-3.3972397-7.5743103-7.573555V92.7446442          h15.1481476V109.3146439z"
   id="path192" />
							</g>
						</g>
					</g>
				</g>
				<g
   id="g284">
					<g
   id="g236">
						<g
   id="g212">
							
								<ellipse
   transform="matrix(0.0197019 -0.9998059 0.9998059 0.0197019 86.9465637 223.0026855)"
   class="st3"
   cx="157.1934814"
   cy="67.1629486"
   rx="7.8860016"
   ry="7.886055"
   id="ellipse202" />
							<g
   id="g206">
								<path
   class="st2"
   d="M157.1934814,58.5365219c-4.7566223,0-8.6261444,3.8698807-8.6261444,8.6265106          c0,4.7565613,3.8695221,8.6257019,8.6261444,8.6257019c4.7565613,0,8.6260681-3.8691406,8.6260681-8.6257019          C165.8195496,62.4064026,161.9500427,58.5365219,157.1934814,58.5365219z M157.1934814,74.3087158          c-3.9403229,0-7.1461182-3.205719-7.1461182-7.1456833c0-3.9406967,3.2057953-7.146492,7.1461182-7.146492          c3.9403381,0,7.1460571,3.2057953,7.1460571,7.146492          C164.3395386,71.1029968,161.1338196,74.3087158,157.1934814,74.3087158z"
   id="path204" />
							</g>
							<g
   id="g210">
								<path
   class="st2"
   d="M161.2169189,66.423027c-0.4087067,0-0.7400055,0.3309326-0.7400055,0.7400055          c0,1.8102875-1.4727783,3.2830505-3.283432,3.2830505s-3.2834167-1.4727631-3.2834167-3.2830505          c0-0.4090729-0.3313751-0.7400055-0.7400055-0.7400055c-0.4087067,0-0.7400208,0.3309326-0.7400208,0.7400055          c0,2.6261444,2.1369324,4.7630768,4.763443,4.7630768c2.6265259,0,4.763443-2.1369324,4.763443-4.7630768          C161.9569244,66.7539597,161.6255493,66.423027,161.2169189,66.423027z"
   id="path208" />
							</g>
						</g>
						<g
   id="g224">
							<circle
   class="st3"
   cx="213.2004395"
   cy="67.162941"
   r="7.8860321"
   id="circle214" />
							<g
   id="g218">
								<path
   class="st2"
   d="M213.2008057,58.5365219c-4.7566223,0-8.6264954,3.8698807-8.6264954,8.6265106          c0,4.7565613,3.869873,8.6257019,8.6264954,8.6257019c4.7565765,0,8.6257019-3.8691406,8.6257019-8.6257019          C221.8265076,62.4064026,217.9573822,58.5365219,213.2008057,58.5365219z M213.2008057,74.3087158          c-3.9406891,0-7.1464844-3.205719-7.1464844-7.1456833c0-3.9406967,3.2057953-7.146492,7.1464844-7.146492          c3.9399567,0,7.1456909,3.2057953,7.1456909,7.146492          C220.3464966,71.1029968,217.1407623,74.3087158,213.2008057,74.3087158z"
   id="path216" />
							</g>
							<g
   id="g222">
								<path
   class="st2"
   d="M217.223877,66.423027c-0.4090729,0-0.7400208,0.3309326-0.7400208,0.7400055          c0,1.8102875-1.4728394,3.2830505-3.2830505,3.2830505c-1.8110046,0-3.283783-1.4727631-3.283783-3.2830505          c0-0.4090729-0.3310089-0.7400055-0.7400208-0.7400055c-0.4090576,0-0.7400055,0.3309326-0.7400055,0.7400055          c0,2.6261444,2.1368561,4.7630768,4.7638092,4.7630768c2.6261444,0,4.7630768-2.1369324,4.7630768-4.7630768          C217.9638824,66.7539597,217.6328735,66.423027,217.223877,66.423027z"
   id="path220" />
							</g>
						</g>
						<g
   id="g234">
							<path
   class="st3"
   d="M185.1970062,28.0909748h-0.0000763c-15.4659119,0-28.0034485,12.5375385-28.0034485,28.0034428         v17.1842766c0,15.4658279,12.5375366,28.0034409,28.0034485,28.0034409h0.0000763         c15.4658966,0,28.0034332-12.5376129,28.0034332-28.0034409V56.0944176         C213.2004395,40.6285133,200.6629028,28.0909748,185.1970062,28.0909748z"
   id="path226" />
							<path
   class="st3"
   d="M185.1957397,101.2799149c15.3308563,0,27.7871399-12.3205643,27.9947815-27.6034622h-55.9894104         C157.4087524,88.9593506,169.865036,101.2799149,185.1957397,101.2799149z"
   id="path228" />
							<g
   id="g232">
								<path
   class="st2"
   d="M185.1967773,27.3506699c-15.8491516,0-28.7433014,12.8945198-28.7433014,28.743969v17.1842766          c0,15.8487854,12.894516,28.7433014,28.7436829,28.7433014c15.8490753,0,28.7436676-12.894516,28.7436676-28.7433014          V56.0946388C213.9408264,40.2451897,201.0462341,27.3506699,185.1967773,27.3506699z M212.4608002,73.2789154          c0,15.0329285-12.2304382,27.2632828-27.2636414,27.2632828h-0.0003815          c-15.0329132,0-27.2632751-12.2303543-27.2632751-27.2632828V56.0946388          c0-15.0335884,12.2303619-27.2639503,27.2636566-27.2639503c15.0332031,0,27.2636414,12.2303619,27.2636414,27.2639503          V73.2789154z"
   id="path230" />
							</g>
						</g>
					</g>
					<g
   id="g246">
						<g
   id="g240">
							<path
   class="st2"
   d="M194.9502563,81.5476379l-0.5098724,0.1835938         c-5.956192,2.1398087-12.4934387,2.0762482-18.4055939-0.1784897         c-0.3815308-0.1460037-0.8097076,0.0462494-0.9553528,0.4277954         c-0.1456299,0.3822937,0.0462494,0.8094254,0.4278107,0.9553528         c3.2079315,1.2227936,6.5888824,1.8348541,9.9716949,1.8348541c3.2014313,0,6.4042664-0.5484924,9.4619141-1.646225         l0.5101624-0.1835175c0.3847961-0.1387558,0.5843201-0.5630035,0.4458466-0.9474335         C195.7588654,81.6097946,195.3350525,81.4103622,194.9502563,81.5476379z"
   id="path238" />
						</g>
						<g
   id="g244">
							<path
   class="st2"
   d="M188.2334137,72.9371033c-0.4087067,0-0.7400055,0.3310089-0.7400055,0.7400131         c0,1.2660828-1.0301819,2.2966232-2.2962494,2.2966232c-1.2665405,0-2.2967072-1.0305405-2.2967072-2.2966232         c0-0.4090042-0.3312988-0.7400131-0.7400055-0.7400131c-0.4086304,0-0.7400055,0.3310089-0.7400055,0.7400131         c0,2.082756,1.6943359,3.7766418,3.7767181,3.7766418c2.0823059,0,3.7762604-1.6938858,3.7762604-3.7766418         C188.9734192,73.2681122,188.6420441,72.9371033,188.2334137,72.9371033z"
   id="path242" />
						</g>
					</g>
					<g
   id="g282">
						<g
   id="g256">
							<g
   id="g250">
								<path
   class="st2"
   d="M182.2749939,55.8287544h-25.0818787c-0.4087067,0-0.7400055,0.3309288-0.7400055,0.7400093          c0,0.4090004,0.3312988,0.7400093,0.7400055,0.7400093h25.0818787c0.4087067,0,0.7400208-0.3310089,0.7400208-0.7400093          C183.0150146,56.1596832,182.6837006,55.8287544,182.2749939,55.8287544z"
   id="path248" />
							</g>
							<g
   id="g254">
								<path
   class="st2"
   d="M182.2749939,55.8287544h-19.9618225c-0.4086304,0-0.7400055,0.3309288-0.7400055,0.7400093v10.6795197          c0,2.2793045,1.8543854,4.1336212,4.1336823,4.1336212h9.0578613c4.5492096,0,8.2503052-3.7007141,8.2503052-8.2499237          v-6.5632172C183.0150146,56.1596832,182.6837006,55.8287544,182.2749939,55.8287544z M181.5349884,63.1319809          c0,3.7332764-3.0370026,6.7699051-6.7702789,6.7699051h-9.0578613c-1.4630585,0-2.6536713-1.1902313-2.6536713-2.6536026          V57.308773h18.4818115V63.1319809z"
   id="path252" />
							</g>
						</g>
						<g
   id="g266">
							<g
   id="g260">
								<path
   class="st2"
   d="M213.1906738,55.8287544h-25.0823212c-0.4086456,0-0.7400055,0.3309288-0.7400055,0.7400093          c0,0.4090004,0.3313599,0.7400093,0.7400055,0.7400093h25.0823212c0.4089966,0,0.7400055-0.3310089,0.7400055-0.7400093          C213.9306793,56.1596832,213.5996704,55.8287544,213.1906738,55.8287544z"
   id="path258" />
							</g>
							<g
   id="g264">
								<path
   class="st2"
   d="M208.0705414,55.8287544h-19.9621887c-0.4086456,0-0.7400055,0.3309288-0.7400055,0.7400093v6.5632172          c0,4.5492096,3.7011414,8.2499237,8.2507172,8.2499237h9.0578766c2.2792969,0,4.1336212-1.8543167,4.1336212-4.1336212          V56.5687637C208.8105621,56.1596832,208.4796295,55.8287544,208.0705414,55.8287544z M207.3305359,67.2482834          c0,1.4633713-1.1902313,2.6536026-2.653595,2.6536026h-9.0578766c-3.7333374,0-6.7707062-3.0366287-6.7707062-6.7699051          V57.308773h18.4821777V67.2482834z"
   id="path262" />
							</g>
						</g>
						<g
   id="g276">
							<g
   id="g270">
								<path
   class="st2"
   d="M172.2941895,60.6954994c-1.616394,0-2.9267273,1.3103333-2.9267273,2.9267387          c0,1.616478,1.3103333,2.9268112,2.9267273,2.9268112c1.6164856,0,2.9268188-1.3103333,2.9268188-2.9268112          C175.2210083,62.0058327,173.910675,60.6954994,172.2941895,60.6954994z"
   id="path268" />
							</g>
							<g
   id="g274">
								<path
   class="st2"
   d="M198.0997314,60.6954994c-1.6164093,0-2.9267426,1.3103333-2.9267426,2.9267387          c0,1.616478,1.3103333,2.9268112,2.9267426,2.9268112c1.6164703,0,2.9268188-1.3103333,2.9268188-2.9268112          C201.0265503,62.0058327,199.7162018,60.6954994,198.0997314,60.6954994z"
   id="path272" />
							</g>
						</g>
						<g
   id="g280">
							<path
   class="st2"
   d="M188.1083527,59.8337593h-5.8333588c-0.4086151,0-0.7400055,0.3309326-0.7400055,0.7400093         c0,0.4090042,0.3313904,0.7400093,0.7400055,0.7400093h5.8333588c0.4087067,0,0.7400055-0.3310051,0.7400055-0.7400093         C188.8483582,60.1646919,188.5170593,59.8337593,188.1083527,59.8337593z"
   id="path278" />
						</g>
					</g>
				</g>
				<g
   id="g292">
					<path
   class="st7"
   d="M211.2262573,31.7084389c0-4.2958298-4.1920166-8.0886002-10.6437988-10.4201488       c-2.0360565,2.2596188-4.8866425,4.5912418-8.8391113,6.2361336c0,0,2.5790863-3.1220989,4.583252-7.4897842       c-3.2977142-0.7744942-6.9707489-1.1977043-10.8433685-1.1977043c-14.2129211,0-25.7429352,5.7569771-25.7429352,12.8715038       c0,0.6227913,0.0958405,1.2455826,0.2714386,1.8444748c-4.4714355,5.5494041-7.1543274,12.5999908-7.1543274,20.2813644       v6.739193c0.1517029-0.1038208,0.3114014-0.1996536,0.4790802-0.2874947       c0.1596832-0.095829,0.3273773-0.1756783,0.5030518-0.2555237c0.1676941-0.0798454,0.3353729-0.1517029,0.5110626-0.2235565       c0.0398712-0.0159836,0.0878296-0.0318947,0.1357117-0.0478783c0.1277313-0.0479546,0.2714386-0.0958328,0.4072266-0.1357918       c0.1517029-0.0478783,0.2954102-0.087841,0.4471893-0.1277275c0.2234802-0.0479507,0.447113-0.095829,0.6786652-0.1277237       c0.1915894-0.031971,0.383255-0.0479546,0.5828247-0.0639381c0.1917419-0.0159836,0.3913116-0.0239754,0.5909729-0.0239754       V55.790493c0-0.0478783,0-0.0957565,0.0079193-0.1437073c0-0.1835976,0.0079956-0.3672676,0.015976-0.5509377       c0.5190582-8.2642059,8.5996552-13.9175072,16.7520447-11.8733788c3.4654694,0.8624077,7.3780365,1.357399,11.5140991,1.357399       c9.0787506,0,17.0555267-2.355526,21.6387634-5.9007607c0.0319824,0.039959,0.0639496,0.0878372,0.1038361,0.1277962       c0.199646,0.2555275,0.399231,0.5189705,0.5908966,0.782486c1.1258545,1.5490646,2.0999908,3.2019501,2.898468,4.9665031       c0,0,0,0.0079918,0.0079956,0.0159836c0.1517029,0.3433647,0.3033905,0.6947212,0.447113,1.0460014       c0.1437073,0.3593483,0.2874908,0.7266922,0.4152069,1.093956c0.1277313,0.3513565,0.2395477,0.7026405,0.3513641,1.053997       c0.0079193,0.0159836,0.0159149,0.0398865,0.0159149,0.0558701c0.1197968,0.3753319,0.2236328,0.7505913,0.3274536,1.1258507       c0.0957489,0.3833237,0.1915894,0.7665749,0.2714233,1.149826c0.0798645,0.3433647,0.1437225,0.6947212,0.2075806,1.0380135       c0.015976,0.0798454,0.0319672,0.1596947,0.0399628,0.2395401c0.0558624,0.2954865,0.1038208,0.5988884,0.1437073,0.8943024       c0.0079956,0.1118164,0.0239716,0.2156372,0.0399628,0.3194618c0.0398865,0.3113213,0.0718536,0.6227913,0.0958252,0.9421806       c0.0079956,0.0638618,0.0159149,0.1357155,0.0239105,0.1995811c0.015976,0.2395401,0.0319672,0.487072,0.0479431,0.7346077       c0.0079956,0.0558701,0.0079956,0.1198044,0.0079956,0.18367c0.0079956,0.1516991,0.0159912,0.3113937,0.0239716,0.4710884       c0.0079956,0.3193893,0.0159149,0.6467667,0.0159149,0.9741478v3.1858902c0.199585,0,0.399231,0.0079918,0.5908966,0.0239754       c0.1996613,0.0159836,0.3912506,0.0319672,0.582901,0.0639381c0.1437225,0.0159111,0.2794342,0.0398865,0.4152222,0.0717812       c0.4631042,0.095829,0.9182129,0.2316208,1.3493347,0.3992348c0.1437836,0.0639343,0.2795105,0.1198082,0.4152985,0.1837425       c0.1437073,0.0637894,0.2794189,0.1357193,0.4072266,0.2075005c0.0877686,0.0479507,0.1676788,0.095829,0.2474518,0.1437836       c0.1118164,0.0638618,0.2236328,0.1277237,0.3273926,0.1996536v-6.739193       c0-7.4418297-2.5231476-14.2927666-6.7471161-19.7623253C211.0744629,33.305378,211.2262573,32.5149002,211.2262573,31.7084389       z"
   id="path286" />
					<g
   id="g290">
						<path
   class="st2"
   d="M211.9664764,31.7082901c0-4.5079899-4.0577698-8.5599117-11.1327057-11.1159782        c-0.2817993-0.1012344-0.5997772-0.0231628-0.8014374,0.2008381        c-1.7242126,1.9136639-3.7192078,3.5114937-5.9550629,4.7718029c0.8816376-1.3289833,1.9619751-3.1298695,2.9220734-5.2220249        c0.0924988-0.2015781,0.0896149-0.4343109-0.0079193-0.6337433c-0.0976105-0.1994343-0.2797241-0.344698-0.4958038-0.3953133        c-3.4406128-0.8072033-7.1456909-1.2169456-11.0123138-1.2169456c-14.8504333,0-26.4831543,5.978611-26.4831543,13.6113644        c0,0.5543404,0.0675507,1.1165276,0.2009125,1.6744194c-4.5708923,5.8087807-7.0836029,13.0564308-7.0836029,20.4514961        v6.739563c0,0.2746162,0.1521454,0.5268135,0.3949585,0.654686c0.2427826,0.1272087,0.5365753,0.11063,0.7634583-0.0440292        c0.1275787-0.0882111,0.2619629-0.1684265,0.4423065-0.2645569c0.1358643-0.0816231,0.2792664-0.1480751,0.4383087-0.2211113        c0.1553192-0.0737076,0.31073-0.1401596,0.4667969-0.2038002l0.1257935-0.0440292        c0.1101837-0.0419617,0.2348022-0.0831032,0.3692627-0.1221771c0.1391296-0.0447693,0.2706299-0.0809555,0.4021301-0.1149254        c0.1972809-0.0418816,0.3953094-0.085247,0.6200562-0.1163292c0.1713104-0.0281944,0.3421783-0.0418816,0.5228882-0.0563889        c0.1719666-0.0136871,0.3508301-0.0209389,0.5296936-0.0209389c0.4086304,0,0.7400055-0.3309326,0.7400055-0.7400131        l-0.00177-3.5135651c0.0064392-0.0397377,0.0096893-0.0794754,0.0096893-0.1199532        c0-0.172718,0.0076294-0.3454361,0.0145111-0.504467c0.2279968-3.626339,2.0613708-6.9505386,5.0300598-9.1207619        c3.1013031-2.2669487,7.0377197-3.0272331,10.8049622-2.0805397c3.6779938,0.914875,7.6121826,1.3788605,11.6927338,1.3788605        c8.5801849,0,16.5400238-2.0891953,21.4982452-5.6158562c0.0802155,0.1070023,0.1589508,0.2139359,0.2370148,0.3208656        c1.1150513,1.5342636,2.0646362,3.1609535,2.8226929,4.836113h0.0007477        c0.0036163,0.0079155,0.0072479,0.0159073,0.0108032,0.0238266c0.1467438,0.3324127,0.2927399,0.6728172,0.4300232,1.0088539        c0.1402283,0.3483238,0.2796478,0.7053032,0.4075928,1.0709419c0.1184692,0.3273811,0.2226105,0.6547623,0.3410645,1.0262451        c0.0007477,0.0021477,0.0014801,0.0042915,0.0021667,0.0065117c0.0043488,0.0165787,0.0087128,0.033226,0.0144958,0.0491371        c0.1163177,0.3663788,0.2174835,0.7320175,0.3143463,1.0810814c0.0939026,0.3736305,0.1864166,0.7479286,0.2681122,1.1367264        c0.0744476,0.3202019,0.1343842,0.6482506,0.2030487,1.0168495c0.0108795,0.0556488,0.0231628,0.1105576,0.0383453,0.2326584        c0.0541687,0.2825356,0.0996704,0.5723228,0.1329041,0.8086815c0.0093994,0.1315002,0.0275269,0.2550812,0.0440979,0.3620148        c0.0383301,0.2977791,0.0686798,0.5954857,0.0953979,0.937294l0.0982666,1.5162048        c0.0079956,0.3136177,0.0158997,0.6352272,0.0158997,0.9560928v3.1861839        c0,0.4090805,0.3310089,0.7400131,0.7400208,0.7400131c0.1784821,0,0.3577118,0.0072517,0.5319214,0.0216789        c0.1784821,0.0137672,0.3497162,0.0274544,0.5600281,0.0614243c0.1127777,0.0122833,0.2189789,0.0310783,0.34758,0.0614204        c0.4162598,0.0860634,0.830368,0.2081642,1.1996307,0.3512077l0.146759,0.0636406        c0.0852356,0.0375938,0.1690826,0.0729637,0.265213,0.1184769c0.1228333,0.0549812,0.2391663,0.1164017,0.3512115,0.1792297        c0.0794678,0.0441017,0.1524506,0.0874672,0.2543335,0.1481476c0.086731,0.0498772,0.1741943,0.0982742,0.2544098,0.1546631        c0.1264801,0.0888748,0.2752838,0.1337204,0.4241791,0.1337204c0.1170654,0,0.2341461-0.0274544,0.3418121-0.0838432        c0.2450104-0.1272087,0.3981934-0.3801422,0.3981934-0.6561661v-6.739563        c0-7.2447662-2.3009796-14.1151657-6.6579285-19.8957481        C211.8486633,33.2034798,211.9664764,32.4548111,211.9664764,31.7082901z M216.7938538,53.8342056v5.4850235        c-0.0729675-0.0332985-0.1459351-0.0650482-0.2211151-0.0976067l-0.1676941-0.0722237        c-0.4776764-0.1857452-0.9712524-0.331749-1.4453125-0.4292793c-0.1654663-0.0397415-0.3309937-0.068676-0.4661255-0.0823631        c-0.1835175-0.0304146-0.3671265-0.0484734-0.5550079-0.0643806v-2.4794044        c0-0.3338928-0.0079193-0.6670456-0.016571-1.0110016l-0.0231628-0.4343834        c0-0.1033058-0.0036316-0.2073517-0.0101471-0.2312546l-0.0520172-0.7775269l-0.0202026-0.1640587        c-0.0245667-0.3331528-0.0578003-0.65839-0.1026459-0.9987183c-0.0130157-0.0845833-0.0267029-0.1690941-0.0375824-0.3056984        c-0.0418854-0.3093224-0.0917664-0.6265678-0.1408997-0.8693619        c-0.0101471-0.1040459-0.0296021-0.2081642-0.0549164-0.3375206c-0.0636292-0.3432159-0.1286011-0.692276-0.2045288-1.0189171        c-0.0816345-0.3924294-0.1799774-0.7855949-0.2825317-1.1945992        c-0.1004944-0.3649712-0.2016602-0.7298698-0.3172455-1.0962486c-0.0159149-0.0831032-0.0397491-0.1431198-0.0484772-0.158287        c-0.1105499-0.3454399-0.2203674-0.690876-0.3432007-1.0283203c-0.1315918-0.3779945-0.2797241-0.7552528-0.4292908-1.1295509        c-0.1467438-0.3584595-0.3006744-0.7161789-0.4545898-1.0659065c-0.0057678-0.0116196-0.010788-0.0231628-0.016571-0.0347061        c-0.7985535-1.7618904-1.7972717-3.4724236-2.9680328-5.0832748        c-0.1965485-0.2702522-0.4024963-0.5412445-0.6070404-0.8035774        c-0.0173035-0.0216827-0.0462494-0.0585327-0.0657043-0.0780716        c-0.0051117-0.0071754-0.0433655-0.0556488-0.0484772-0.0621605        c-0.2550812-0.3099899-0.7067719-0.3612709-1.0261688-0.1170692        c-4.6503601,3.5981483-12.5703888,5.7459526-21.1852875,5.7459526c-3.9602356,0-7.7740936-0.449482-11.3342743-1.3347549        c-4.1925354-1.053627-8.5802002-0.2052803-12.0366974,2.3211861        c-3.3250122,2.4303398-5.3784637,6.1563644-5.6346588,10.2380333        c-0.0076294,0.1784897-0.0151672,0.3569794-0.0166473,0.5354729c-0.0061493,0.0643044-0.0079193,0.1272049-0.0079193,0.190773        v2.7829552c-0.1886292,0.0159073-0.3688965,0.0332985-0.5344238,0.0614929        c-0.2410278,0.032486-0.4740601,0.0816231-0.765625,0.1445236c-0.1644287,0.0433655-0.3198395,0.086731-0.4672394,0.1336479        c-0.1542969,0.0455818-0.3172455,0.0997505-0.4318085,0.143856c-0.0625153,0.0202026-0.1243134,0.0418854-0.1828461,0.0650482        c-0.1643524,0.0671921-0.3226471,0.1343842-0.4736786,0.204464v-5.4922028        c0-7.2881317,2.4173126-14.14114,6.9907227-19.8176765c0.1520691-0.1886292,0.2019501-0.4394188,0.1336365-0.6720772        c-0.1604309-0.5470886-0.241684-1.0969925-0.241684-1.6361618c0-6.6889458,11.2164764-12.1313457,25.0031433-12.1313457        c3.4178162,0,6.7015991,0.3287868,9.7761993,0.9777737c-1.8673401,3.7889233-4.0631714,6.4699783-4.0866394,6.4981728        c-0.2164459,0.2623329-0.2265778,0.6381092-0.0238953,0.9113216c0.2016449,0.273138,0.5647736,0.3750362,0.8787537,0.2427959        c3.3640137-1.3998013,6.3099976-3.4348278,8.7634277-6.0523148c6.0819855,2.3045368,9.6952972,5.8550282,9.6952972,9.5535965        c0,0.7024918-0.1322327,1.4099388-0.3924103,2.1036987c-0.0896301,0.2399101-0.0491486,0.5094986,0.107666,0.7125549        C214.5145416,40.1085815,216.7938538,46.785984,216.7938538,53.8342056z"
   id="path288" />
					</g>
				</g>
			</g>
		</g>
		<g
   id="g476">
			<g
   id="g304">
				<path
   class="st8"
   d="M121.0785828,25.469492c-1.3777542-0.1414165-2.776001-0.2138634-4.1911926-0.2138634h-0.0000763      c-0.4668732,0-0.9318924,0.0079193-1.394989,0.0235329c-26.2796631,0.8877888-43.8039017,27.612421-34.9601974,52.3752823      l29.2602768,97.8758774h15.412323l28.3507996-98.3374176C161.6942291,53.5409393,145.9610291,28.022747,121.0785828,25.469492z"
   id="path298" />
				<g
   id="g302">
					<path
   class="st2"
   d="M150.0994568,42.6661301c-6.5018768-10.1758728-17.0520325-16.7123756-28.9453201-17.9329472       c-1.8745956-0.192255-3.8037262-0.2594471-5.686676-0.1929951       c-12.5577393,0.4235077-23.8533173,6.6890202-30.9904175,17.1879044       c-7.3166199,10.7633667-9.0083542,23.9491539-4.6539154,36.1382942l29.1970749,97.6639328h16.9547348l28.2805557-98.0967636       C158.2724152,65.7588654,156.7576904,53.0862045,150.0994568,42.6661301z M124.6478653,174.7903137h-14.3044586       L81.2290649,77.4060974c-4.2059174-11.7765884-2.5759659-24.4774437,4.4721756-34.8454933       c6.868248-10.1043129,17.7360306-16.1335392,29.8164673-16.5418034       c1.8181992-0.0614204,3.6776199,0.0014057,5.4853897,0.187149       c11.4412079,1.1735802,21.5917816,7.4636631,27.8493652,17.2565022       c6.4136658,10.0378609,7.8727417,22.2443886,3.9919891,33.5251732L124.6478653,174.7903137z"
   id="path300" />
				</g>
			</g>
			<g
   id="g356">
				<g
   id="g354">
					<g
   id="g322">
						<path
   class="st1"
   d="M140.3604889,121.6631851l-3.6260529-1.5318985l-19.8470459-8.3843079l-19.8470535,8.3843079        l-3.6186523,1.5318985c-4.9432602,2.0868225-8.1548996,6.9264145-8.1548996,12.291481v41.5756531h63.2412109v-41.5756531        C148.5079956,128.5895996,145.3037567,123.7500076,140.3604889,121.6631851z"
   id="path306" />
						<path
   class="st4"
   d="M97.0403366,120.1312866c0.1332016,10.8486176,8.9689102,19.595459,19.8470535,19.595459        s19.7138519-8.7468414,19.8470459-19.595459l-19.8470459-8.3843079L97.0403366,120.1312866z"
   id="path308" />
						<g
   id="g312">
							<path
   class="st2"
   d="M137.0224609,119.4500351l-19.8469772-8.3843842c-0.1842651-0.0779953-0.3916931-0.0779953-0.5759583,0         l-19.8472748,8.3843842c-0.2771378,0.1170731-0.4556274,0.3895416-0.4520035,0.6908722         c0.1376419,11.2078171,9.3733368,20.3256912,20.5872879,20.3256912s20.4492722-9.1178741,20.5869217-20.3256912         C137.4780731,119.8395767,137.2995911,119.5671082,137.0224609,119.4500351z M116.8875351,138.9865875         c-10.242691,0-18.7069244-8.1950226-19.0949783-18.3694839l19.0949783-8.0663223l19.0946121,8.0663223         C135.5940857,130.7915649,127.1302338,138.9865875,116.8875351,138.9865875z"
   id="path310" />
						</g>
						<rect
   x="85.2696686"
   y="145.4798737"
   class="st3"
   width="11.9032745"
   height="30.0504608"
   id="rect314" />
						<rect
   x="136.0176086"
   y="145.4798737"
   class="st3"
   width="11.9032745"
   height="30.0504608"
   id="rect316" />
						<g
   id="g320">
							<path
   class="st2"
   d="M140.6490936,120.9791946l-23.4707336-9.9142838c-0.1842651-0.0779953-0.3916092-0.0779953-0.5759506,0         l-23.4703598,9.9142838c-5.2255783,2.2070007-8.6022415,7.2989273-8.6022415,12.9718399v41.5792847h1.4800186v-41.5792847         c0-5.0767517,3.0218277-9.6338806,7.6981735-11.6088943l23.1824188-9.792099l23.1827316,9.792099         c4.6764069,1.9750137,7.6982422,6.5321426,7.6982422,11.6088943v41.5792847h1.480011v-41.5792847         C149.2514038,128.2781219,145.8747406,123.1861954,140.6490936,120.9791946z"
   id="path318" />
						</g>
					</g>
					<g
   id="g332">
						<g
   id="g326">
							<path
   class="st2"
   d="M97.1728668,141.8779449c-0.4087067,0-0.7400055,0.3310089-0.7400055,0.7400055v32.9123688h1.4800186         v-32.9123688C97.9128799,142.2089539,97.5815125,141.8779449,97.1728668,141.8779449z"
   id="path324" />
						</g>
						<g
   id="g330">
							<path
   class="st2"
   d="M97.1728668,144.7397156h-8.2684174c-0.408638,0-0.7400131,0.3310089-0.7400131,0.7400055         c0,0.4090118,0.3313751,0.7400055,0.7400131,0.7400055h8.2684174c0.4086456,0,0.7400131-0.3309937,0.7400131-0.7400055         C97.9128799,145.0707245,97.5815125,144.7397156,97.1728668,144.7397156z"
   id="path328" />
						</g>
					</g>
					<g
   id="g342">
						<g
   id="g336">
							<path
   class="st2"
   d="M136.0176086,141.8779449c-0.4087219,0-0.7400208,0.3310089-0.7400208,0.7400055v32.9123688h1.4800262         v-32.9123688C136.7576141,142.2089539,136.4262238,141.8779449,136.0176086,141.8779449z"
   id="path334" />
						</g>
						<g
   id="g340">
							<path
   class="st2"
   d="M144.2863159,144.7397156h-8.2687073c-0.4087219,0-0.7400208,0.3310089-0.7400208,0.7400055         c0,0.4090118,0.3312988,0.7400055,0.7400208,0.7400055h8.2687073c0.4086456,0,0.7400055-0.3309937,0.7400055-0.7400055         C145.0263214,145.0707245,144.6949615,144.7397156,144.2863159,144.7397156z"
   id="path338" />
						</g>
					</g>
					<path
   class="st3"
   d="M125.2047272,115.2589188V99.3506393h-16.6282349v15.9093857l-7.5327072,3.1841125       c-0.0444031,0.4735336-0.0666046,0.9471436-0.0666046,1.4282227c0,8.783905,7.126297,15.910202,15.9102097,15.910202       c8.7913132,0,15.910202-7.126297,15.910202-15.910202c0-0.4810791-0.0222015-0.9620132-0.0666046-1.4356232       L125.2047272,115.2589188z"
   id="path344" />
					<g
   id="g348">
						<path
   class="st2"
   d="M133.0188599,117.7554169l-7.0741959-2.9875717V99.350563        c0-0.4090805-0.3313065-0.7400131-0.7400131-0.7400131h-16.6281586c-0.408638,0-0.7400131,0.3309326-0.7400131,0.7400131        v15.4187622l-7.0806351,2.9932632c-0.2511597,0.1062698-0.4235077,0.3411484-0.4488144,0.6121368        c-0.0462494,0.4928513-0.0697098,0.9965744-0.0697098,1.4973373c0,9.1807785,7.4690704,16.6502151,16.6502151,16.6502151        c9.181076,0,16.6502151-7.4694366,16.6502151-16.6502151c0-0.5029831-0.0235291-1.0088577-0.0700836-1.5045853        C133.4423676,118.0964813,133.2696381,117.8608627,133.0188599,117.7554169z M116.8875351,135.0422516        c-8.3648453,0-15.1701965-6.8053436-15.1701965-15.1701889c0-0.307106,0.0097733-0.6156845,0.028862-0.9213867        l7.1183014-3.0091705c0.27388-0.1156693,0.4519958-0.3844376,0.4519958-0.6814804v-15.1694565h15.1481476v15.1679764        c0,0.2977829,0.1781921,0.5658875,0.4520721,0.6814804l7.1117096,3.0034027        c0.0195312,0.3078384,0.0292969,0.6193085,0.0292969,0.9286346        C132.057724,128.236908,125.2523804,135.0422516,116.8875351,135.0422516z"
   id="path346" />
					</g>
					<g
   id="g352">
						<path
   class="st2"
   d="M116.8875351,130.6022034c-0.4087067,0-0.7400055,0.3310089-0.7400055,0.7400055v4.4400635        c0,0.4089966,0.3312988,0.7400055,0.7400055,0.7400055c0.408638,0,0.7400131-0.3310089,0.7400131-0.7400055v-4.4400635        C117.6275482,130.9332123,117.2961731,130.6022034,116.8875351,130.6022034z"
   id="path350" />
					</g>
				</g>
			</g>
			<g
   id="g474">
				<g
   id="g390">
					<g
   id="g368">
						
							<ellipse
   transform="matrix(0.9871732 -0.1596528 0.1596528 0.9871732 -10.6889734 15.1414413)"
   class="st3"
   cx="88.8870773"
   cy="74.0927048"
   rx="7.8860016"
   ry="7.8860626"
   id="ellipse358" />
						<g
   id="g362">
							<path
   class="st2"
   d="M88.8871384,65.4669342c-4.7565689,0-8.6260757,3.8691406-8.6260757,8.6256943         c0,4.7566376,3.8695068,8.6265182,8.6260757,8.6265182c4.7565536,0,8.6260605-3.8698807,8.6260605-8.6265182         C97.5131989,69.3360748,93.643692,65.4669342,88.8871384,65.4669342z M88.8871384,81.2391281         c-3.9403381,0-7.1460571-3.2057953-7.1460571-7.1464996c0-3.9399567,3.205719-7.1456757,7.1460571-7.1456757         c3.9403229,0,7.1460419,3.205719,7.1460419,7.1456757C96.0331802,78.0333328,92.8274612,81.2391281,88.8871384,81.2391281z"
   id="path360" />
						</g>
						<g
   id="g366">
							<path
   class="st2"
   d="M92.9105682,73.352623c-0.408638,0-0.7400055,0.3310089-0.7400055,0.7400055         c0,1.8110275-1.4727783,3.2837982-3.2834244,3.2837982c-1.8106613,0-3.2834244-1.4727707-3.2834244-3.2837982         c0-0.4089966-0.3313828-0.7400055-0.7400055-0.7400055c-0.4087143,0-0.7400131,0.3310089-0.7400131,0.7400055         c0,2.6268921,2.1369171,4.7638168,4.763443,4.7638168c2.6265106,0,4.763443-2.1369247,4.763443-4.7638168         C93.6505814,73.6836319,93.3192673,73.352623,92.9105682,73.352623z"
   id="path364" />
						</g>
					</g>
					<g
   id="g380">
						
							<ellipse
   transform="matrix(0.3802077 -0.9249011 0.9249011 0.3802077 21.2757931 179.9347687)"
   class="st3"
   cx="144.8940582"
   cy="74.0927048"
   rx="7.8860626"
   ry="7.8860397"
   id="ellipse370" />
						<g
   id="g374">
							<path
   class="st2"
   d="M144.8940887,65.4669342c-4.7566376,0-8.6261444,3.8691406-8.6261444,8.6256943         c0,4.7566376,3.8695068,8.6265182,8.6261444,8.6265182c4.7565613,0,8.6260681-3.8698807,8.6260681-8.6265182         C153.5201569,69.3360748,149.65065,65.4669342,144.8940887,65.4669342z M144.8940887,81.2391281         c-3.9403381,0-7.1461334-3.2057953-7.1461334-7.1464996c0-3.9399567,3.2057953-7.1456757,7.1461334-7.1456757         c3.9403229,0,7.1460419,3.205719,7.1460419,7.1456757C152.0401306,78.0333328,148.8344116,81.2391281,144.8940887,81.2391281         z"
   id="path372" />
						</g>
						<g
   id="g378">
							<path
   class="st2"
   d="M148.917511,73.352623c-0.4087067,0-0.7400055,0.3310089-0.7400055,0.7400055         c0,1.8110275-1.4727631,3.2837982-3.2834167,3.2837982s-3.283432-1.4727707-3.283432-3.2837982         c0-0.4089966-0.3313751-0.7400055-0.7400055-0.7400055c-0.4087067,0-0.7400055,0.3310089-0.7400055,0.7400055         c0,2.6268921,2.1369171,4.7638168,4.763443,4.7638168c2.6265106,0,4.763443-2.1369247,4.763443-4.7638168         C149.6575317,73.6836319,149.3261566,73.352623,148.917511,73.352623z"
   id="path376" />
						</g>
					</g>
					<g
   id="g388">
						<path
   class="st3"
   d="M125.7453003,51.2956009c-4.3512573,5.3059425-18.7074356,7.7553749-36.7340698,9.1391945        c-0.0887985,0.8509369-0.1258011,1.7168198-0.1258011,2.5900307v17.1829453        c0,15.4662781,12.535759,28.002037,28.0019608,28.002037s28.0093536-12.535759,28.0093536-28.002037V63.024826        c0-1.3394165-0.0066528-1.9714584-0.1916504-3.2590752C135.5511627,58.2118034,128.3057404,55.2473259,125.7453003,51.2956009        z"
   id="path382" />
						<g
   id="g386">
							<path
   class="st2"
   d="M144.8290405,59.035881c-9.4155884-1.5977554-16.1450806-4.5657845-18.4626389-8.1429901         c-0.1287003-0.1979561-0.3440399-0.3230171-0.5795822-0.3360405         c-0.2410202-0.0115433-0.4639893,0.086731-0.6139145,0.2695847         c-4.7775726,5.8254318-22.9587173,7.8524628-36.2185822,8.8707161         c-0.3562393,0.0274544-0.6424789,0.3056984-0.6793289,0.661274c-0.0873947,0.8389473-0.1296463,1.7112732-0.1296463,2.666626         v17.1827965c0,15.8480453,12.8937759,28.7418213,28.7421875,28.7418213         c15.8524094,0,28.7490768-12.8937759,28.7490768-28.7418213V63.0250511c0-1.3723488-0.0079193-2.0350266-0.1991425-3.3647499         C145.3919678,59.3423195,145.1459045,59.0901222,144.8290405,59.035881z M144.1565857,80.2078476         c0,15.0321808-12.2329407,27.2618027-27.2690506,27.2618027c-15.0325546,0-27.2621689-12.2296219-27.2621689-27.2618027         V63.0250511c0-0.6720772,0.0219727-1.2993851,0.0671921-1.9006424         c20.3347168-1.5978279,31.5558548-4.2897606,35.9876251-8.6632919         c2.8758163,3.5475311,9.3234482,6.3421059,18.3629684,7.9413376c0.1084137,0.900444,0.1134338,1.4966698,0.1134338,2.6225967         V80.2078476z"
   id="path384" />
						</g>
					</g>
				</g>
				<g
   id="g446">
					<g
   id="g402">
						<g
   id="g394">
							<path
   class="st6"
   d="M113.033493,93.0456085c0,2.1700745,1.7591553,3.9292297,3.9292297,3.9292297         c2.1700821,0,3.9292297-1.7591553,3.9292297-3.9292297c0,0-1.7591476,0-3.9292297,0         C114.7926483,93.0456085,113.033493,93.0456085,113.033493,93.0456085z"
   id="path392" />
						</g>
						<g
   id="g400">
							<path
   class="st6"
   d="M114.85392,91.0974579c-1.1647034,0-2.1088104,0.9441757-2.1088104,2.1088028         c0,0,0.9441071,0,2.1088104,0c1.1646271,0,2.1088028,0,2.1088028,0         C116.9627228,92.0416336,116.0185471,91.0974579,114.85392,91.0974579z"
   id="path396" />
							<path
   class="st6"
   d="M119.0715256,91.0974579c-1.1646271,0-2.1088028,0.9441757-2.1088028,2.1088028         c0,0,0.9441757,0,2.1088028,0c1.1647034,0,2.1088028,0,2.1088028,0         C121.1803284,92.0416336,120.2362289,91.0974579,119.0715256,91.0974579z"
   id="path398" />
						</g>
					</g>
					<g
   id="g406">
						<path
   class="st2"
   d="M124.3161926,91.8297729l-0.387764,0.1394882        c-4.4899292,1.6129303-9.4159546,1.5652695-13.8722916-0.1344604c-0.3826599-0.1474075-0.8093491,0.046257-0.9553528,0.427803        c-0.1456299,0.3822861,0.0462494,0.8094254,0.427803,0.9554291c2.4596405,0.937294,5.0514526,1.4069748,7.6454773,1.4069748        c2.4541702,0,4.9104843-0.4205475,7.254837-1.2624512l0.3880615-0.1394958        c0.3844299-0.1387482,0.5843124-0.5622559,0.4459305-0.9466934        C125.1244354,91.8911896,124.6998978,91.6910172,124.3161926,91.8297729z"
   id="path404" />
					</g>
					<g
   id="g410">
						<path
   class="st2"
   d="M119.9270477,82.8448715c-0.4086304,0-0.7400055,0.3309326-0.7400055,0.7400131        c0,1.2660828-1.0301666,2.2966156-2.2962494,2.2966156c-1.266449,0-2.2966232-1.0305328-2.2966232-2.2966156        c0-0.4090805-0.3313675-0.7400131-0.7400055-0.7400131c-0.4087067,0-0.7400131,0.3309326-0.7400131,0.7400131        c0,2.0826797,1.694252,3.7766342,3.7766418,3.7766342c2.0823135,0,3.776268-1.6939545,3.776268-3.7766342        C120.6670609,83.1758041,120.335762,82.8448715,119.9270477,82.8448715z"
   id="path408" />
					</g>
					<g
   id="g444">
						<g
   id="g426">
							<circle
   class="st4"
   cx="103.7793808"
   cy="74.0927048"
   r="3.1057434"
   id="circle412" />
							<g
   id="g416">
								<path
   class="st2"
   d="M103.7794495,70.2466507c-2.1206436,0-3.8456802,1.724968-3.8456802,3.8459778          c0,2.1210175,1.7250366,3.8460541,3.8456802,3.8460541c2.1206512,0,3.8456879-1.7250366,3.8456879-3.8460541          C107.6251373,71.9716187,105.9001007,70.2466507,103.7794495,70.2466507z M103.7794495,76.4586639          c-1.3044128,0-2.3656616-1.061615-2.3656616-2.3660355c0-1.3044128,1.0612488-2.3659515,2.3656616-2.3659515          c1.3044205,0,2.3656616,1.0615387,2.3656616,2.3659515          C106.1451111,75.397049,105.0838699,76.4586639,103.7794495,76.4586639z"
   id="path414" />
							</g>
							<g
   id="g420">
								<path
   class="st2"
   d="M100.7316513,71.9463043c-0.5395432,0-0.9785156-0.4385986-0.9785156-0.9777679          c0-0.4090042-0.3313751-0.7400131-0.7400131-0.7400131c-0.4087067,0-0.7400055,0.3310089-0.7400055,0.7400131          c0,1.3550262,1.1027603,2.4577942,2.4585342,2.4577942c0.4086304,0,0.7400055-0.3309326,0.7400055-0.7400131          C101.4716568,72.2773132,101.1402817,71.9463043,100.7316513,71.9463043z"
   id="path418" />
							</g>
							<g
   id="g424">
								<path
   class="st2"
   d="M106.8851242,66.7763824h-7.8720016c-0.4087067,0-0.7400055,0.3310013-0.7400055,0.7400055          s0.3312988,0.7400131,0.7400055,0.7400131h7.8720016c0.4086304,0,0.7400131-0.3310089,0.7400131-0.7400131          S107.2937546,66.7763824,106.8851242,66.7763824z"
   id="path422" />
							</g>
						</g>
						<g
   id="g442">
							<circle
   class="st4"
   cx="130.000061"
   cy="74.0927048"
   r="3.1057434"
   id="circle428" />
							<g
   id="g432">
								<path
   class="st2"
   d="M129.9999084,70.2466507c-2.1206436,0-3.8456802,1.724968-3.8456802,3.8459778          c0,2.1210175,1.7250366,3.8460541,3.8456802,3.8460541c2.1206512,0,3.8460541-1.7250366,3.8460541-3.8460541          C133.8459625,71.9716187,132.1205597,70.2466507,129.9999084,70.2466507z M129.9999084,76.4586639          c-1.3044128,0-2.3656616-1.061615-2.3656616-2.3660355c0-1.3044128,1.0612488-2.3659515,2.3656616-2.3659515          c1.3047943,0,2.3660431,1.0615387,2.3660431,2.3659515          C132.3659515,75.397049,131.3047028,76.4586639,129.9999084,76.4586639z"
   id="path430" />
							</g>
							<g
   id="g436">
								<path
   class="st2"
   d="M134.7662506,70.2285233c-0.4086456,0-0.7400055,0.3310089-0.7400055,0.7400131          c0,0.5391693-0.4389954,0.9777679-0.9784546,0.9777679c-0.4087067,0-0.7400055,0.3310089-0.7400055,0.7400131          c0,0.4090805,0.3312988,0.7400131,0.7400055,0.7400131c1.3556976,0,2.4584656-1.1027679,2.4584656-2.4577942          C135.5062561,70.5595322,135.174942,70.2285233,134.7662506,70.2285233z"
   id="path434" />
							</g>
							<g
   id="g440">
								<path
   class="st2"
   d="M134.7662506,66.7763824h-7.8720093c-0.4086304,0-0.7400131,0.3310013-0.7400131,0.7400055          s0.3313828,0.7400131,0.7400131,0.7400131h7.8720093c0.4086914,0,0.7400055-0.3310089,0.7400055-0.7400131          S135.174942,66.7763824,134.7662506,66.7763824z"
   id="path438" />
							</g>
						</g>
					</g>
				</g>
				<g
   id="g472">
					<g
   id="g456">
						<g
   id="g450">
							<path
   class="st2"
   d="M114.2628021,64.6141434H89.1809235c-0.4087143,0-0.7400131,0.3310089-0.7400131,0.7400131         c0,0.4090729,0.3312988,0.7400055,0.7400131,0.7400055h25.0818787c0.408699,0,0.7400131-0.3309326,0.7400131-0.7400055         C115.0028152,64.9451523,114.6715012,64.6141434,114.2628021,64.6141434z"
   id="path448" />
						</g>
						<g
   id="g454">
							<path
   class="st2"
   d="M114.2628021,64.6141434H94.3009644c-0.4086304,0-0.7400055,0.3310089-0.7400055,0.7400131v10.6795959         c0,2.2793045,1.8543854,4.1336212,4.1336136,4.1336212h9.0575714c4.5495071,0,8.2506714-3.7014542,8.2506714-8.2506638         v-6.5625534C115.0028152,64.9451523,114.6715012,64.6141434,114.2628021,64.6141434z M113.5227966,71.9167099         c0,3.7332687-3.0373764,6.7706375-6.7706528,6.7706375h-9.0575714c-1.4629974,0-2.653595-1.1902313-2.653595-2.653595         V66.094162h18.4818192V71.9167099z"
   id="path452" />
						</g>
					</g>
					<g
   id="g466">
						<g
   id="g460">
							<path
   class="st2"
   d="M145.1781006,64.6141434h-25.081955c-0.408638,0-0.7400131,0.3310089-0.7400131,0.7400131         c0,0.4090729,0.3313751,0.7400055,0.7400131,0.7400055h25.081955c0.4086304,0,0.7400055-0.3309326,0.7400055-0.7400055         C145.9181061,64.9451523,145.586731,64.6141434,145.1781006,64.6141434z"
   id="path458" />
						</g>
						<g
   id="g464">
							<path
   class="st2"
   d="M140.0579681,64.6141434h-19.9618225c-0.408638,0-0.7400131,0.3310089-0.7400131,0.7400131v6.5625534         c0,4.5492096,3.7011566,8.2506638,8.2506638,8.2506638h9.0575714c2.2792969,0,4.1336212-1.8543167,4.1336212-4.1336212         V65.3541565C140.7979889,64.9451523,140.4666748,64.6141434,140.0579681,64.6141434z M139.3179626,76.0337524         c0,1.4633636-1.1905975,2.653595-2.653595,2.653595h-9.0575714c-3.7332764,0-6.7706451-3.0373688-6.7706451-6.7706375         V66.094162h18.4818115V76.0337524z"
   id="path462" />
						</g>
					</g>
					<g
   id="g470">
						<path
   class="st2"
   d="M120.0961456,68.6184845h-5.8333435c-0.408638,0-0.7400055,0.3309326-0.7400055,0.7400131        c0,0.4090042,0.3313675,0.7400055,0.7400055,0.7400055h5.8333435c0.4087067,0,0.7400055-0.3310013,0.7400055-0.7400055        C120.8361511,68.9494171,120.5048523,68.6184845,120.0961456,68.6184845z"
   id="path468" />
					</g>
				</g>
			</g>
		</g>
		<g
   id="g552">
			<g
   id="g480">
				<path
   class="st0"
   d="M106.5091248,1.2352866c-1.7032776,0-3.0893936,1.3861119-3.0893936,3.0893917      c0,1.7033539,1.386116,3.0893917,3.0893936,3.0893917c1.7033539,0,3.0890961-1.3860378,3.0890961-3.0893917      C109.5982208,2.6213984,108.2124786,1.2352866,106.5091248,1.2352866z M106.5091248,5.934051      c-0.8874207,0-1.609375-0.7219534-1.609375-1.6093726s0.7219543-1.6093729,1.609375-1.6093729      c0.8871231,0,1.6090775,0.7219534,1.6090775,1.6093729S107.3962479,5.934051,106.5091248,5.934051z"
   id="path478" />
			</g>
			<g
   id="g484">
				<path
   class="st0"
   d="M55.557991,55.7004318c-1.7033539,0-3.0893898,1.3861122-3.0893898,3.0893898      c0,1.7033539,1.3860359,3.0893936,3.0893898,3.0893936c1.7032814,0,3.0890236-1.3860397,3.0890236-3.0893936      C58.6470146,57.086544,57.2612724,55.7004318,55.557991,55.7004318z M55.557991,60.3991966      c-0.8874168,0-1.6093712-0.7219543-1.6093712-1.609375c0-0.8874168,0.7219543-1.6093712,1.6093712-1.6093712      c0.8870506,0,1.609005,0.7219543,1.609005,1.6093712C57.166996,59.6772423,56.4450417,60.3991966,55.557991,60.3991966z"
   id="path482" />
			</g>
			<g
   id="g488">
				<path
   class="st0"
   d="M34.4273911,98.8693924c-1.7033539,0-3.0890217,1.386116-3.0890217,3.0893936      c0,1.7033539,1.3856678,3.0887222,3.0890217,3.0887222c1.7032814,0,3.0893898-1.3853683,3.0893898-3.0887222      C37.5167809,100.2555084,36.1306725,98.8693924,34.4273911,98.8693924z M34.4273911,103.5674896      c-0.8871269,0-1.6090012-0.7219543-1.6090012-1.6087036c0-0.8874207,0.7218742-1.609375,1.6090012-1.609375      c0.8874168,0,1.6093712,0.7219543,1.6093712,1.609375C36.0367622,102.8455353,35.3148079,103.5674896,34.4273911,103.5674896z"
   id="path486" />
			</g>
			<g
   id="g492">
				<path
   class="st0"
   d="M324.965332,40.9230385c-1.7033386,0-3.089386,1.3860359-3.089386,3.0893898      c0,1.7032814,1.3860474,3.0886536,3.089386,3.0886536c1.7033691,0,3.089386-1.3853722,3.089386-3.0886536      C328.054718,42.3090744,326.6687012,40.9230385,324.965332,40.9230385z M324.965332,45.6210594      c-0.8874207,0-1.609375-0.7219505-1.609375-1.6086311c0-0.8874207,0.7219543-1.6093712,1.609375-1.6093712      s1.609375,0.7219505,1.609375,1.6093712C326.574707,44.8991089,325.8527527,45.6210594,324.965332,45.6210594z"
   id="path490" />
			</g>
			<g
   id="g496">
				<path
   class="st0"
   d="M221.0865021,1.1959217c-1.7033539,0-3.0894012,1.3861117-3.0894012,3.0893919      c0,1.7033539,1.3860474,3.0893917,3.0894012,3.0893917s3.089386-1.3860378,3.089386-3.0893917      C224.1758881,2.5820334,222.789856,1.1959217,221.0865021,1.1959217z M221.0865021,5.8946862      c-0.8874207,0-1.609375-0.7219534-1.609375-1.6093726s0.7219543-1.6093729,1.609375-1.6093729      s1.609375,0.7219532,1.609375,1.6093729S221.9739227,5.8946862,221.0865021,5.8946862z"
   id="path494" />
			</g>
			<g
   id="g500">
				<path
   class="st0"
   d="M322.5437317,73.3334427c-1.7033691,0-3.0894165,1.386116-3.0894165,3.0893936      c0,1.7033539,1.3860474,3.0886536,3.0894165,3.0886536c1.7033386,0,3.088623-1.3852997,3.088623-3.0886536      C325.6323547,74.7195587,324.2470703,73.3334427,322.5437317,73.3334427z M322.5437317,78.0314713      c-0.8874512,0-1.6094055-0.7218781-1.6094055-1.6086349c0-0.8874207,0.7219543-1.609375,1.6094055-1.609375      c0.8866577,0,1.6086121,0.7219543,1.6086121,1.609375C324.1523438,77.3095932,323.4303894,78.0314713,322.5437317,78.0314713z"
   id="path498" />
			</g>
			<g
   id="g510">
				<g
   id="g504">
					<path
   class="st0"
   d="M343.6129761,91.9699326l-5.0332947,5.0341339c-0.2891541,0.2890472-0.2891541,0.7573242,0,1.0463715       c0.1445007,0.1445236,0.3338013,0.2168274,0.5231628,0.2168274s0.3786621-0.0723038,0.5231934-0.2168274l5.0333862-5.0340576       c0.2890625-0.2890472,0.2890625-0.7573318,0-1.0464478C344.3703918,91.6808853,343.9020386,91.6808853,343.6129761,91.9699326z       "
   id="path502" />
				</g>
				<g
   id="g508">
					<path
   class="st0"
   d="M339.6260376,91.9699326c-0.2890625-0.2890472-0.7573242-0.2890472-1.0463562,0       c-0.2891541,0.2891159-0.2891541,0.7574005,0,1.0464478l5.0332947,5.0340576       c0.1445312,0.1445236,0.3338928,0.2168274,0.5232544,0.2168274c0.1893005,0,0.3786621-0.0723038,0.5231934-0.2168274       c0.2890625-0.2890472,0.2890625-0.7573242,0-1.0463715L339.6260376,91.9699326z"
   id="path506" />
				</g>
			</g>
			<g
   id="g520">
				<g
   id="g514">
					<path
   class="st0"
   d="M299.6676941,11.7233772l-5.0341187,5.0340614c-0.2890625,0.2890491-0.2890625,0.7573261,0,1.0464478       c0.1445312,0.1445236,0.3338928,0.2167492,0.5232544,0.2167492c0.1893005,0,0.3786621-0.0722256,0.5231934-0.2167492       l5.0340576-5.0341358c0.2891235-0.2890482,0.2891235-0.7573261,0-1.0463734       C300.4250183,11.4342546,299.9567566,11.4342546,299.6676941,11.7233772z"
   id="path512" />
				</g>
				<g
   id="g518">
					<path
   class="st0"
   d="M295.6800232,11.7233772c-0.2890625-0.2891226-0.7573242-0.2891226-1.0464478,0       c-0.2890625,0.2890472-0.2890625,0.7573252,0,1.0463734l5.0341187,5.0341358       c0.1445312,0.1445236,0.3338318,0.2167492,0.5231934,0.2167492s0.3786621-0.0722256,0.5231934-0.2167492       c0.2891235-0.2891216,0.2891235-0.7573986,0-1.0464478L295.6800232,11.7233772z"
   id="path516" />
				</g>
			</g>
			<g
   id="g530">
				<g
   id="g524">
					<path
   class="st0"
   d="M14.5449696,76.731781l-5.0340633,5.0341415c-0.2891216,0.2890472-0.2891216,0.7573242,0,1.0463715       c0.1445246,0.1445999,0.3338184,0.2168198,0.5231867,0.2168198c0.1893692,0,0.3786631-0.0722198,0.5231867-0.2168198       l5.0341368-5.0340652c0.2890482-0.2890472,0.2890482-0.7573242,0-1.0464478       C15.3022947,76.4427338,14.8340168,76.4427338,14.5449696,76.731781z"
   id="path522" />
				</g>
				<g
   id="g528">
					<path
   class="st0"
   d="M10.5572796,76.731781c-0.2890472-0.2890472-0.7573252-0.2890472-1.0463734,0       c-0.2891216,0.2891235-0.2891216,0.7574005,0,1.0464478l5.0340633,5.0340652       c0.1445236,0.1445999,0.3338919,0.2168198,0.5231867,0.2168198c0.1893682,0,0.3787365-0.0722198,0.5232601-0.2168198       c0.2890482-0.2890472,0.2890482-0.7573242,0-1.0463715L10.5572796,76.731781z"
   id="path526" />
				</g>
			</g>
			<g
   id="g540">
				<g
   id="g534">
					<path
   class="st0"
   d="M79.2903137,14.9803715l-5.0336914,5.0341358c-0.2891159,0.2890491-0.2891159,0.7573261,0,1.0463753       c0.1445236,0.1445961,0.3338242,0.2168217,0.5231857,0.2168217c0.1893005,0,0.3786697-0.0722256,0.5231934-0.2168217       l5.0337601-5.0340633c0.2890549-0.2890482,0.2890549-0.7573261,0-1.0464478       C80.0476456,14.6913233,79.5793686,14.6913233,79.2903137,14.9803715z"
   id="path532" />
				</g>
				<g
   id="g538">
					<path
   class="st0"
   d="M75.3030014,14.9803715c-0.2890472-0.2890482-0.7573318-0.2890482-1.0463791,0       c-0.2891159,0.2891216-0.2891159,0.7573996,0,1.0464478l5.0336914,5.0340633       c0.1445312,0.1445961,0.3338928,0.2168217,0.5231934,0.2168217c0.1893692,0,0.3786621-0.0722256,0.5232544-0.2168217       c0.2890549-0.2890491,0.2890549-0.7573261,0-1.0463753L75.3030014,14.9803715z"
   id="path536" />
				</g>
			</g>
			<g
   id="g550">
				<g
   id="g544">
					<path
   class="st0"
   d="M146.124649,6.4188466l-5.0337677,5.0340629c-0.2890472,0.2890472-0.2890472,0.7573252,0,1.0464478       c0.144516,0.1445236,0.3338928,0.2167482,0.5232697,0.2167482c0.1892853,0,0.3786469-0.0722246,0.5231781-0.2167482       l5.0336914-5.0341372c0.2891235-0.2890477,0.2891235-0.7573256,0-1.0463734       C146.8819733,6.129725,146.4136963,6.129725,146.124649,6.4188466z"
   id="path542" />
				</g>
				<g
   id="g548">
					<path
   class="st0"
   d="M142.1373291,6.4188466c-0.2890472-0.2891216-0.7573242-0.2891216-1.0464478,0       c-0.2890472,0.2890477-0.2890472,0.7573256,0,1.0463734l5.0337677,5.0341372       c0.144516,0.1445236,0.3338928,0.2167482,0.5231781,0.2167482c0.1893768,0,0.3786621-0.0722246,0.5231934-0.2167482       c0.2891235-0.2891226,0.2891235-0.7574005,0-1.0464478L142.1373291,6.4188466z"
   id="path546" />
				</g>
			</g>
		</g>
	</g>
	<circle
   id="XMLID_12_"
   class="st1"
   cx="117.2384872"
   cy="163.724823"
   r="5.1308136" />
</g>





</svg>