<?xml version="1.0" standalone="no"?>
<!DOCTYPE svg PUBLIC "-//W3C//DTD SVG 20010904//EN"
 "http://www.w3.org/TR/2001/REC-SVG-20010904/DTD/svg10.dtd">
<svg version="1.0" xmlns="http://www.w3.org/2000/svg"
 width="225.000000pt" height="225.000000pt" viewBox="0 0 225.000000 225.000000"
 preserveAspectRatio="xMidYMid meet">
<metadata>
Created by potrace 1.16, written by Peter Selinger 2001-2019
</metadata>
<g transform="translate(0.000000,225.000000) scale(0.100000,-0.100000)"
fill="#000000" stroke="none">
<path d="M0 1125 l0 -1125 1125 0 1125 0 0 1125 0 1125 -1125 0 -1125 0 0
-1125z m1367 960 c597 -151 916 -814 658 -1372 -290 -628 -1115 -775 -1601
-285 -296 299 -372 739 -194 1120 200 426 678 652 1137 537z"/>
<path d="M990 2064 c-227 -44 -400 -134 -544 -284 -119 -124 -192 -254 -236
-415 -25 -91 -37 -302 -22 -375 7 -33 10 -38 11 -17 1 15 5 27 11 27 5 0 7 -6
4 -14 -4 -12 2 -13 33 -6 23 6 39 5 41 0 2 -6 8 -10 14 -10 14 0 2 104 -12
108 -5 2 -10 24 -10 48 0 27 -4 43 -10 39 -6 -3 -7 1 -4 9 8 21 -14 21 -37 0
-10 -9 -23 -13 -28 -9 -14 8 -14 45 -1 45 5 0 7 -7 4 -15 -4 -8 -2 -15 4 -15
5 0 15 7 22 15 14 17 40 20 40 5 0 -5 9 -10 19 -10 15 0 20 9 23 48 3 26 1 52
-4 58 -4 6 -3 25 3 43 6 17 8 38 5 46 -6 17 -36 21 -36 5 0 -5 7 -10 15 -10 8
0 15 -4 15 -9 0 -5 -15 -4 -35 2 -37 11 -44 27 -21 46 10 8 16 9 21 1 3 -6 10
-8 15 -5 4 3 13 -2 20 -10 6 -7 18 -11 26 -8 17 6 55 89 49 106 -6 16 39 93
53 90 15 -3 73 69 68 83 -6 15 66 83 81 77 15 -5 83 47 83 64 0 16 93 69 98
55 4 -14 81 14 99 35 16 21 101 45 109 31 8 -13 97 -4 102 11 6 17 109 14 115
-3 6 -16 86 -27 103 -15 14 11 117 -19 109 -31 -7 -12 81 -51 99 -44 17 6 99
-43 92 -55 -7 -10 71 -74 82 -67 11 6 84 -67 80 -80 -5 -15 42 -84 57 -84 18
0 69 -86 60 -100 -10 -16 15 -80 30 -80 8 0 19 -18 25 -42 6 -24 13 -49 15
-55 2 -7 0 -13 -5 -13 -6 0 -10 -9 -10 -20 0 -18 7 -20 54 -20 30 0 61 -3 69
-6 13 -5 13 3 2 63 -38 198 -130 368 -272 504 -188 179 -378 258 -633 264 -74
2 -146 1 -160 -1z"/>
<path d="M935 1861 c-38 -10 -96 -31 -129 -45 -66 -29 -70 -30 -60 -15 4 7 -1
7 -16 -1 -12 -7 -33 -13 -47 -15 -26 -3 -73 -41 -73 -60 0 -16 -68 -77 -79
-71 -11 7 -73 -68 -64 -78 4 -3 -4 -25 -17 -48 -13 -22 -18 -38 -11 -34 15 10
15 6 -15 -60 -67 -151 -84 -343 -44 -500 42 -165 150 -330 278 -424 67 -48 78
-70 13 -26 -51 36 -156 143 -194 198 -61 90 -111 226 -132 361 -3 20 -10 37
-15 37 -15 0 -12 -88 3 -97 16 -9 39 -95 32 -115 -6 -16 21 -88 33 -88 11 0
56 -80 57 -101 2 -18 36 -66 47 -65 12 1 88 -77 88 -91 0 -14 58 -59 72 -55
14 4 69 -28 93 -54 24 -26 95 -60 95 -45 0 5 10 7 23 5 12 -3 -3 6 -33 19 -80
34 -123 58 -117 63 3 3 33 -9 67 -26 195 -99 465 -99 660 0 34 17 65 29 68 26
6 -6 -139 -76 -158 -76 -7 0 -6 -5 2 -14 11 -11 18 -11 48 1 19 8 42 23 50 32
22 26 83 59 98 54 15 -6 85 45 78 56 -6 10 68 84 76 76 8 -9 69 65 62 76 -5 9
41 99 52 99 2 0 13 -5 24 -12 18 -12 18 -13 -8 -60 -15 -26 -32 -47 -38 -45
-13 3 -77 -70 -70 -81 7 -12 -62 -84 -74 -77 -13 8 -90 -46 -90 -63 0 -7 -16
-22 -36 -34 -19 -11 -31 -24 -26 -27 5 -3 17 -20 26 -38 15 -30 15 -32 -5 -38
-11 -4 -23 -4 -26 -1 -4 3 1 6 10 6 18 0 23 15 8 24 -5 4 -12 0 -15 -6 -3 -7
-3 -1 0 14 5 22 1 30 -19 39 -20 9 -34 8 -71 -6 -25 -10 -44 -22 -43 -28 3
-14 -96 -39 -104 -26 -7 12 -109 1 -109 -12 0 -12 -108 -11 -112 1 -5 14 -96
30 -101 17 -2 -7 -19 -6 -51 3 -41 11 -49 11 -57 -1 -5 -8 -7 -19 -4 -26 2 -6
-3 -17 -11 -23 -20 -17 -19 2 2 46 9 19 14 37 11 40 -11 11 -27 -7 -38 -46 -7
-22 -16 -37 -20 -34 -9 5 8 50 28 75 11 13 8 18 -21 31 -19 10 -37 13 -42 8
-11 -11 -107 47 -100 59 7 10 -65 67 -78 63 -13 -4 -86 69 -80 80 8 13 -46 88
-62 88 -16 0 -18 -16 -4 -25 8 -5 8 -11 1 -19 -14 -16 -4 -26 17 -19 12 4 14
3 7 -5 -6 -7 -26 -15 -45 -18 l-34 -7 23 32 c27 38 21 50 -13 28 -21 -14 -26
-14 -36 -2 -13 15 -6 35 12 35 6 0 17 8 25 18 13 16 14 15 8 -5 -4 -13 -2 -23
4 -23 20 0 21 19 1 54 -12 19 -20 41 -18 48 1 7 -6 35 -16 62 -15 40 -21 46
-30 35 -6 -8 -22 -20 -36 -26 l-25 -12 29 0 c29 -1 29 -1 11 -22 -19 -20 -19
-20 8 -10 17 7 27 7 27 1 0 -6 -6 -10 -12 -10 -7 0 -25 -7 -40 -14 -32 -17
-38 -3 -13 25 15 15 13 17 -15 21 -16 3 -30 3 -30 1 0 -3 16 -38 35 -79 51
-112 115 -202 202 -285 184 -175 372 -255 623 -266 101 -4 143 -1 222 15 102
21 221 68 316 124 78 46 258 228 304 307 60 104 93 190 79 204 -7 8 -54 13
-126 15 l-114 4 -28 -48 c-16 -26 -47 -72 -70 -103 -28 -38 -37 -58 -30 -63
12 -8 -48 -78 -67 -78 -5 0 0 10 12 23 12 13 22 27 22 33 0 5 -9 -2 -19 -15
-29 -38 -213 -132 -306 -156 -138 -36 -339 -14 -468 52 -133 67 -250 181 -312
302 -56 111 -70 177 -70 321 1 120 4 144 28 216 25 76 109 222 138 239 14 10
9 0 -37 -65 -77 -109 -113 -215 -121 -356 -7 -129 13 -224 72 -342 42 -83 117
-183 128 -172 3 3 -17 34 -44 69 -105 135 -144 260 -136 441 6 150 42 255 127
368 28 36 35 53 27 61 -8 8 -4 18 13 36 42 44 58 22 18 -24 l-23 -26 25 20
c13 11 3 -5 -22 -35 -105 -126 -158 -269 -158 -430 0 -115 17 -189 69 -295 70
-143 209 -268 356 -320 95 -33 105 -33 104 8 -1 23 -3 26 -6 10 -5 -29 -17
-29 -95 0 -55 20 -91 41 -204 117 -35 25 -110 130 -149 211 -65 137 -53 149
148 149 81 0 147 3 147 8 0 4 -66 8 -148 10 l-147 4 -33 31 c-34 32 -34 32
-28 102 13 146 68 281 153 375 23 26 43 52 43 57 0 21 215 137 277 149 27 5
32 3 36 -17 3 -19 5 -17 6 9 0 17 -3 32 -8 32 -45 0 -249 -92 -266 -120 -3 -6
-16 -15 -28 -21 -13 -6 -8 2 13 20 64 56 225 131 282 131 12 0 18 -10 21 -37
l4 -38 1 43 2 42 40 0 c39 0 40 -1 40 -34 0 -33 -2 -35 -37 -39 -28 -3 -23 -4
20 -5 l57 -2 0 40 c0 40 0 40 38 40 57 0 158 -27 229 -61 66 -32 175 -113 202
-151 8 -13 -13 3 -48 34 -34 31 -94 73 -131 92 -70 37 -200 76 -252 76 -26 0
-28 -3 -27 -37 2 -31 3 -33 6 -10 4 23 9 27 37 27 49 0 140 -26 209 -61 67
-34 187 -124 187 -141 0 -5 -23 11 -51 36 -88 79 -210 138 -320 152 -47 6 -49
6 -48 -17 0 -13 3 -18 6 -11 6 17 49 15 114 -4 110 -33 227 -108 293 -189 54
-66 43 -67 -15 -2 -28 32 -79 77 -113 99 -62 43 -202 98 -246 97 -14 0 18 -14
71 -32 111 -37 184 -83 270 -167 33 -33 65 -58 70 -55 11 7 72 -116 89 -180
15 -57 44 -95 74 -95 17 0 16 5 -15 38 -20 20 -41 57 -48 82 -7 25 -28 74 -47
109 -18 36 -32 66 -30 68 8 8 56 -88 79 -156 14 -40 35 -83 48 -97 21 -23 27
-24 133 -22 l111 2 -95 3 c-94 4 -96 4 -131 39 -20 20 -39 49 -43 64 -7 40
-63 151 -89 181 -12 14 -18 20 -14 13 15 -24 -16 -28 -35 -4 -25 30 -23 40 8
38 38 -4 101 -100 138 -214 9 -28 29 -62 44 -77 25 -23 36 -26 132 -29 58 -2
113 -8 123 -12 10 -5 17 -4 17 2 0 16 -38 22 -136 22 l-92 0 -36 40 c-20 22
-36 47 -36 56 0 33 -71 163 -117 215 -92 103 -137 140 -227 185 -194 95 -398
99 -591 10 -42 -19 -94 -49 -116 -67 -22 -17 -42 -29 -46 -26 -12 12 148 105
228 132 108 36 257 45 368 21 94 -20 222 -82 288 -140 28 -25 56 -46 61 -46 5
0 15 -7 22 -15 7 -8 16 -12 21 -10 18 12 97 -113 144 -229 8 -22 18 -37 21
-33 8 8 -38 118 -77 184 -44 72 -148 178 -224 228 -83 55 -214 102 -318 115
-339 42 -673 -168 -781 -490 -137 -410 86 -834 501 -952 111 -31 277 -31 388
0 81 24 213 88 251 123 27 25 42 25 19 -1 -10 -11 -14 -20 -8 -20 5 0 18 9 28
20 12 13 14 20 5 20 -6 0 13 27 43 60 31 33 72 87 93 120 20 33 39 58 42 55 9
-8 -60 -112 -115 -174 -30 -34 -50 -61 -45 -61 10 0 57 50 104 110 15 19 28
29 28 23 0 -31 -220 -236 -236 -220 -3 2 7 12 22 21 50 34 16 26 -41 -9 -72
-43 -148 -72 -240 -92 -96 -20 -266 -13 -360 17 -197 61 -362 202 -454 386
-60 120 -75 188 -75 334 -1 145 18 222 87 355 50 97 180 233 274 288 397 230
896 66 1075 -353 33 -77 35 -100 10 -100 -13 0 -23 12 -32 43 -16 55 -50 121
-90 175 -40 56 -51 47 -12 -10 35 -52 75 -130 91 -179 12 -37 72 -104 89 -98
12 5 -22 137 -48 190 -22 43 -26 64 -9 53 8 -4 8 0 0 15 -14 25 -23 28 -14 4
8 -25 -6 -8 -50 59 -37 55 -107 126 -177 181 -19 15 -30 27 -25 27 31 0 172
-136 225 -219 l16 -23 1 22 c2 24 -34 80 -52 80 -14 0 -87 75 -80 82 8 8 -66
68 -77 62 -4 -3 -17 0 -29 7 -15 8 -19 8 -15 0 11 -17 1 -14 -62 18 -117 59
-176 73 -327 77 -115 3 -152 1 -210 -15z m337 -36 c96 -20 236 -90 321 -160
37 -31 67 -61 67 -66 0 -5 -33 18 -72 52 -83 70 -171 117 -278 150 -96 30
-262 32 -360 6 -206 -55 -370 -188 -461 -372 -57 -116 -74 -190 -73 -320 1
-199 69 -362 209 -500 85 -83 171 -136 280 -172 69 -22 98 -26 210 -27 110 -1
141 3 205 22 84 27 159 63 208 99 18 14 36 23 38 20 14 -14 -128 -94 -226
-127 -100 -34 -279 -39 -388 -12 -209 53 -373 182 -472 373 -107 205 -106 439
2 659 54 111 186 247 293 302 163 83 328 108 497 73z"/>
<path d="M910 1707 c-79 -28 -147 -70 -178 -108 -13 -16 -29 -29 -37 -29 -20
0 -92 -95 -130 -171 -43 -84 -65 -170 -65 -250 0 -55 4 -67 27 -91 26 -27 29
-28 127 -26 l101 2 -90 3 c-85 4 -92 5 -122 35 -38 37 -41 64 -18 173 25 117
116 274 188 324 12 8 0 -9 -27 -39 -89 -100 -140 -211 -156 -339 l-10 -75 32
-33 32 -33 130 2 131 2 -120 3 c-119 4 -120 4 -153 36 -33 31 -34 33 -27 92
15 136 72 248 186 363 53 54 75 70 83 62 8 -8 5 -16 -13 -31 -13 -10 -29 -19
-36 -19 -6 0 -20 -9 -30 -20 -29 -32 1 -23 51 16 26 19 64 44 86 55 21 11 38
24 38 29 0 6 -18 1 -41 -10 -23 -12 -43 -19 -47 -16 -3 3 16 15 41 26 26 12
47 25 47 31 0 5 -28 -5 -62 -23 -76 -40 -89 -44 -63 -23 35 29 135 76 166 78
16 1 29 8 29 15 0 15 7 16 -70 -11z"/>
<path d="M1230 1581 c0 -6 8 -11 18 -11 28 0 124 -49 117 -60 -3 -5 0 -7 9 -4
9 3 37 -17 74 -54 l60 -60 -3 -59 c-3 -61 -22 -111 -58 -150 -15 -17 -17 -23
-6 -23 24 0 78 -56 99 -102 12 -25 20 -66 20 -98 0 -77 14 -94 34 -45 9 20 16
43 16 51 0 8 16 14 40 17 l40 4 -41 -1 c-40 -1 -42 -3 -60 -46 -10 -25 -18
-39 -18 -33 -1 7 6 31 15 53 15 38 18 40 60 40 24 0 44 4 44 8 0 5 -25 7 -55
4 -46 -4 -55 -2 -55 12 0 9 6 16 13 16 6 0 -12 22 -42 48 -37 33 -51 51 -42
56 9 6 9 11 0 22 -9 11 -9 14 1 14 9 0 10 3 1 13 -6 8 -8 17 -4 21 4 4 6 24 5
44 l-3 37 20 -30 c15 -22 17 -31 8 -37 -9 -6 -9 -8 1 -8 7 0 12 -13 12 -30 0
-17 -5 -30 -12 -30 -9 0 -9 -3 1 -9 8 -5 11 -16 8 -24 -3 -9 8 -27 27 -46 27
-26 39 -31 76 -29 35 1 38 2 14 5 -50 6 -79 47 -92 132 -7 40 -23 96 -37 124
-29 61 -25 77 4 18 25 -49 51 -143 51 -186 0 -20 9 -40 23 -53 22 -21 32 -22
153 -20 l129 2 -118 3 c-148 4 -159 12 -177 121 -24 147 -125 287 -253 351
-73 36 -117 48 -117 32z"/>
<path d="M1110 1525 c0 -23 -4 -25 -45 -25 -33 0 -45 4 -45 15 0 21 -27 18
-86 -9 -51 -24 -139 -94 -130 -104 3 -2 23 10 44 27 51 39 68 41 22 1 -19 -16
-29 -29 -22 -30 9 0 12 -27 12 -100 l0 -100 80 0 80 0 0 100 0 100 93 0 c133
0 178 -31 179 -125 1 -55 -22 -92 -70 -112 -30 -12 -68 -14 -197 -11 -88 3
-128 2 -90 -2 l70 -6 -75 -4 -75 -3 60 -7 60 -7 -60 -3 -60 -3 50 -7 50 -7
-50 -3 c-49 -3 -49 -3 -15 -10 l35 -7 -35 -2 c-29 -2 -32 -4 -15 -11 17 -7 17
-9 3 -9 -15 -1 -18 -10 -18 -51 0 -41 3 -50 18 -51 14 0 14 -2 -3 -9 -17 -6
-14 -8 15 -12 l35 -5 -35 -3 c-32 -3 -31 -4 15 -10 l50 -7 -50 -3 -50 -3 60
-7 60 -7 -60 -3 -60 -4 75 -6 75 -6 -72 -2 c-66 -2 -73 -4 -73 -22 0 -17 -7
-20 -47 -20 l-46 0 21 -23 c30 -32 28 -46 -3 -17 -14 13 -25 19 -25 13 0 -5 9
-18 20 -28 11 -10 18 -20 15 -23 -3 -3 -14 3 -25 13 -28 25 -25 3 3 -23 18
-17 37 -22 102 -24 l80 -3 3 -42 c2 -29 8 -43 20 -47 9 -2 27 -7 40 -11 13 -4
22 -2 22 4 0 6 -9 11 -20 11 -11 0 -20 4 -20 9 0 5 9 7 20 4 11 -3 20 0 20 6
0 6 -9 11 -20 11 -11 0 -20 4 -20 9 0 5 9 7 20 4 27 -7 25 5 -2 17 l-23 9 23
0 c12 1 22 6 22 11 0 6 20 10 45 10 l45 0 0 -58 0 -58 48 6 47 5 0 50 0 50 74
7 c89 9 147 36 195 88 40 44 50 85 44 169 -6 79 -40 132 -107 162 l-49 23 34
23 c45 31 64 71 64 135 0 68 -30 114 -96 147 -42 21 -68 26 -166 31 -5 0 -8 8
-8 19 0 20 -25 31 -72 31 -23 0 -28 -4 -28 -25z m194 -464 c62 -41 76 -126 30
-180 -33 -40 -77 -51 -206 -51 l-108 0 0 125 0 125 128 0 c109 0 131 -3 156
-19z"/>
<path d="M1040 955 l0 -105 93 0 c50 0 109 5 129 10 47 13 78 52 78 97 0 80
-43 103 -195 103 l-105 0 0 -105z"/>
<path d="M1040 1276 l0 -106 70 0 c78 0 133 18 149 48 20 37 13 98 -13 129
-23 26 -30 28 -115 31 l-91 4 0 -106z"/>
<path d="M1710 971 c0 -32 -4 -41 -17 -41 -12 0 -31 -26 -57 -78 -30 -58 -61
-97 -124 -159 -48 -47 -98 -87 -116 -92 -17 -5 -60 -21 -95 -35 -36 -14 -74
-27 -85 -27 -17 -1 -18 -2 -4 -6 26 -6 124 24 187 58 62 33 81 33 25 0 -84
-50 -218 -88 -241 -69 -10 8 -13 6 -13 -6 0 -34 122 -11 233 45 31 16 57 33
57 38 0 5 15 16 33 24 61 30 164 155 205 250 l12 27 142 -1 c79 0 151 -3 160
-7 10 -4 -52 -5 -137 -4 l-154 4 -22 -44 c-32 -64 -103 -160 -144 -196 -20
-18 -35 -40 -33 -49 2 -9 -3 -18 -11 -21 -9 -3 -11 0 -6 8 5 9 4 11 -4 6 -6
-4 -9 -11 -6 -16 16 -26 -203 -115 -300 -121 l-50 -4 -3 43 -3 42 -57 -2 c-43
-1 -48 -2 -19 -5 36 -4 37 -5 37 -45 0 -40 0 -40 -31 -34 -17 3 -35 6 -40 6
-4 0 -10 19 -12 43 l-4 42 -1 -42 c-2 -37 -4 -41 -24 -36 -72 16 -154 49 -217
88 -40 25 -71 39 -68 32 7 -21 120 -86 198 -113 98 -35 270 -44 374 -20 89 21
204 77 257 124 96 85 149 144 178 195 49 88 52 89 176 85 60 -2 118 -7 129
-12 17 -8 18 -7 7 5 -10 10 -48 15 -147 17 l-134 4 -22 -44 c-45 -88 -131
-198 -173 -220 -12 -6 8 20 44 59 36 38 83 100 106 139 l41 69 129 0 c71 0
139 -4 151 -8 17 -6 21 -4 19 9 -4 28 -32 33 -193 33 l-151 1 -11 -31 c-18
-53 -100 -167 -154 -214 -79 -69 -73 -54 13 33 56 56 86 96 111 149 l34 71 64
4 63 3 -51 43 -51 43 0 -40z"/>
<path d="M565 950 c-17 -18 -16 -22 21 -97 60 -122 181 -235 307 -288 64 -27
40 -2 -36 38 -41 20 -85 49 -98 64 -19 20 -11 17 36 -15 64 -43 135 -76 135
-63 0 4 -22 18 -49 30 -27 13 -61 34 -77 48 -31 26 -21 23 36 -12 52 -31 90
-46 90 -35 0 5 -15 16 -32 24 -37 16 -78 45 -63 45 6 0 19 -6 29 -14 24 -18
33 -19 33 -2 0 15 -11 16 -107 20 -66 2 -71 4 -110 42 -35 34 -38 41 -26 53
13 13 11 20 -9 51 -31 49 -38 76 -22 89 7 6 60 13 118 15 l104 3 -116 2 c-150
3 -156 -2 -111 -96 18 -37 25 -58 16 -47 -9 11 -27 42 -40 70 -33 69 -19 83
85 88 l76 3 -86 2 c-74 2 -88 -1 -104 -18z"/>
<path d="M1620 958 c0 -25 -50 -119 -60 -113 -5 3 -7 0 -4 -8 7 -20 -110 -142
-126 -132 -9 6 -6 13 11 26 19 14 11 13 -36 -6 -33 -14 -72 -25 -87 -25 -18 0
-28 -5 -28 -15 0 -22 52 -19 94 5 20 12 37 17 40 11 8 -12 -101 -81 -129 -81
-23 0 -52 -16 -44 -24 3 -3 34 5 69 19 34 13 67 22 72 19 4 -3 7 0 6 7 -2 6 3
14 11 17 8 3 11 0 7 -6 -5 -8 2 -8 23 -1 48 17 156 139 193 218 18 39 40 72
48 74 9 3 6 5 -7 6 -17 1 -27 -11 -48 -56 -14 -32 -43 -81 -65 -109 -39 -52
-126 -131 -135 -122 -3 2 15 20 40 38 55 41 123 131 152 202 17 42 27 54 50
59 26 6 25 7 -9 8 -24 1 -38 -4 -38 -11z"/>
</g>
</svg>
